<?xml version="1.0" encoding="utf-8" standalone="no"?>
<!DOCTYPE svg PUBLIC "-//W3C//DTD SVG 1.1//EN"
  "http://www.w3.org/Graphics/SVG/1.1/DTD/svg11.dtd">
<!-- Created with matplotlib (http://matplotlib.org/) -->
<svg height="432pt" version="1.1" viewBox="0 0 576 432" width="576pt" xmlns="http://www.w3.org/2000/svg" xmlns:xlink="http://www.w3.org/1999/xlink">
 <defs>
  <style type="text/css">
*{stroke-linecap:butt;stroke-linejoin:round;}
  </style>
 </defs>
 <g id="figure_1">
  <g id="patch_1">
   <path d="
M0 432
L576 432
L576 0
L0 0
z
" style="fill:#ffffff;"/>
  </g>
  <g id="axes_1">
   <g id="patch_2">
    <path d="
M72 388.8
L518.4 388.8
L518.4 43.2
L72 43.2
z
" style="fill:#ffffff;"/>
   </g>
   <g id="line2d_1">
    <path clip-path="url(#p7ff5b81e1d)" d="
M72 378.223
L78.975 361.422
L84.834 349.194
L97.668 329.434
L110.502 311.906
L127.521 292.789
L146.772 273.667
L168.534 254.173
L218.754 217.026
L264.789 190.336
L340.119 149.586
L402.894 117.623
L476.55 78.9021" style="fill:none;stroke:#0000ff;stroke-linecap:square;"/>
    <defs>
     <path d="
M0 1.5
C0.397805 1.5 0.77937 1.34195 1.06066 1.06066
C1.34195 0.77937 1.5 0.397805 1.5 0
C1.5 -0.397805 1.34195 -0.77937 1.06066 -1.06066
C0.77937 -1.34195 0.397805 -1.5 0 -1.5
C-0.397805 -1.5 -0.77937 -1.34195 -1.06066 -1.06066
C-1.34195 -0.77937 -1.5 -0.397805 -1.5 0
C-1.5 0.397805 -1.34195 0.77937 -1.06066 1.06066
C-0.77937 1.34195 -0.397805 1.5 0 1.5
z
" id="m7dd2bde27e" style="stroke:#0000ff;stroke-width:0.5;"/>
    </defs>
    <g clip-path="url(#p7ff5b81e1d)">
     <use style="fill:#0000ff;stroke:#0000ff;stroke-width:0.5;" x="72.0" xlink:href="#m7dd2bde27e" y="378.223335626"/>
     <use style="fill:#0000ff;stroke:#0000ff;stroke-width:0.5;" x="78.975" xlink:href="#m7dd2bde27e" y="361.422314848"/>
     <use style="fill:#0000ff;stroke:#0000ff;stroke-width:0.5;" x="84.834" xlink:href="#m7dd2bde27e" y="349.193858048"/>
     <use style="fill:#0000ff;stroke:#0000ff;stroke-width:0.5;" x="97.668" xlink:href="#m7dd2bde27e" y="329.433995028"/>
     <use style="fill:#0000ff;stroke:#0000ff;stroke-width:0.5;" x="110.502" xlink:href="#m7dd2bde27e" y="311.906074842"/>
     <use style="fill:#0000ff;stroke:#0000ff;stroke-width:0.5;" x="127.521" xlink:href="#m7dd2bde27e" y="292.789065974"/>
     <use style="fill:#0000ff;stroke:#0000ff;stroke-width:0.5;" x="146.772" xlink:href="#m7dd2bde27e" y="273.666656702"/>
     <use style="fill:#0000ff;stroke:#0000ff;stroke-width:0.5;" x="168.534" xlink:href="#m7dd2bde27e" y="254.172630018"/>
     <use style="fill:#0000ff;stroke:#0000ff;stroke-width:0.5;" x="218.754" xlink:href="#m7dd2bde27e" y="217.0258006"/>
     <use style="fill:#0000ff;stroke:#0000ff;stroke-width:0.5;" x="264.789" xlink:href="#m7dd2bde27e" y="190.336021652"/>
     <use style="fill:#0000ff;stroke:#0000ff;stroke-width:0.5;" x="340.119" xlink:href="#m7dd2bde27e" y="149.585783907"/>
     <use style="fill:#0000ff;stroke:#0000ff;stroke-width:0.5;" x="402.894" xlink:href="#m7dd2bde27e" y="117.62341555"/>
     <use style="fill:#0000ff;stroke:#0000ff;stroke-width:0.5;" x="476.55" xlink:href="#m7dd2bde27e" y="78.9021201691"/>
    </g>
   </g>
   <g id="line2d_2">
    <path clip-path="url(#p7ff5b81e1d)" d="
M72 378.132
L78.975 363.893
L84.834 353.174
L97.668 333.866
L110.502 317.154
L127.521 297.541
L146.772 278.18
L168.534 258.487
L218.754 219.755
L264.789 193.501
L340.119 154.415
L402.894 122.854
L476.55 81.6132" style="fill:none;stroke:#008000;stroke-linecap:square;"/>
    <defs>
     <path d="
M0 1.5
C0.397805 1.5 0.77937 1.34195 1.06066 1.06066
C1.34195 0.77937 1.5 0.397805 1.5 0
C1.5 -0.397805 1.34195 -0.77937 1.06066 -1.06066
C0.77937 -1.34195 0.397805 -1.5 0 -1.5
C-0.397805 -1.5 -0.77937 -1.34195 -1.06066 -1.06066
C-1.34195 -0.77937 -1.5 -0.397805 -1.5 0
C-1.5 0.397805 -1.34195 0.77937 -1.06066 1.06066
C-0.77937 1.34195 -0.397805 1.5 0 1.5
z
" id="m6647e498ca" style="stroke:#008000;stroke-width:0.5;"/>
    </defs>
    <g clip-path="url(#p7ff5b81e1d)">
     <use style="fill:#008000;stroke:#008000;stroke-width:0.5;" x="72.0" xlink:href="#m6647e498ca" y="378.131518707"/>
     <use style="fill:#008000;stroke:#008000;stroke-width:0.5;" x="78.975" xlink:href="#m6647e498ca" y="363.893088008"/>
     <use style="fill:#008000;stroke:#008000;stroke-width:0.5;" x="84.834" xlink:href="#m6647e498ca" y="353.174021203"/>
     <use style="fill:#008000;stroke:#008000;stroke-width:0.5;" x="97.668" xlink:href="#m6647e498ca" y="333.866000559"/>
     <use style="fill:#008000;stroke:#008000;stroke-width:0.5;" x="110.502" xlink:href="#m6647e498ca" y="317.154031026"/>
     <use style="fill:#008000;stroke:#008000;stroke-width:0.5;" x="127.521" xlink:href="#m6647e498ca" y="297.54078595"/>
     <use style="fill:#008000;stroke:#008000;stroke-width:0.5;" x="146.772" xlink:href="#m6647e498ca" y="278.179808989"/>
     <use style="fill:#008000;stroke:#008000;stroke-width:0.5;" x="168.534" xlink:href="#m6647e498ca" y="258.486866595"/>
     <use style="fill:#008000;stroke:#008000;stroke-width:0.5;" x="218.754" xlink:href="#m6647e498ca" y="219.755427631"/>
     <use style="fill:#008000;stroke:#008000;stroke-width:0.5;" x="264.789" xlink:href="#m6647e498ca" y="193.501156699"/>
     <use style="fill:#008000;stroke:#008000;stroke-width:0.5;" x="340.119" xlink:href="#m6647e498ca" y="154.414699199"/>
     <use style="fill:#008000;stroke:#008000;stroke-width:0.5;" x="402.894" xlink:href="#m6647e498ca" y="122.853982908"/>
     <use style="fill:#008000;stroke:#008000;stroke-width:0.5;" x="476.55" xlink:href="#m6647e498ca" y="81.6131731011"/>
    </g>
   </g>
   <g id="line2d_3">
    <path clip-path="url(#p7ff5b81e1d)" d="
M72 377.583
L78.975 364.077
L84.834 354.266
L97.668 335.449
L110.502 321.081
L127.521 302.754
L146.772 284.324
L168.534 264.297
L218.754 228.513
L264.789 199.939
L340.119 157.271
L402.894 126.392
L476.55 86.014" style="fill:none;stroke:#ff0000;stroke-linecap:square;"/>
    <defs>
     <path d="
M0 1.5
C0.397805 1.5 0.77937 1.34195 1.06066 1.06066
C1.34195 0.77937 1.5 0.397805 1.5 0
C1.5 -0.397805 1.34195 -0.77937 1.06066 -1.06066
C0.77937 -1.34195 0.397805 -1.5 0 -1.5
C-0.397805 -1.5 -0.77937 -1.34195 -1.06066 -1.06066
C-1.34195 -0.77937 -1.5 -0.397805 -1.5 0
C-1.5 0.397805 -1.34195 0.77937 -1.06066 1.06066
C-0.77937 1.34195 -0.397805 1.5 0 1.5
z
" id="m590d835582" style="stroke:#ff0000;stroke-width:0.5;"/>
    </defs>
    <g clip-path="url(#p7ff5b81e1d)">
     <use style="fill:#ff0000;stroke:#ff0000;stroke-width:0.5;" x="72.0" xlink:href="#m590d835582" y="377.583116333"/>
     <use style="fill:#ff0000;stroke:#ff0000;stroke-width:0.5;" x="78.975" xlink:href="#m590d835582" y="364.076986522"/>
     <use style="fill:#ff0000;stroke:#ff0000;stroke-width:0.5;" x="84.834" xlink:href="#m590d835582" y="354.265688033"/>
     <use style="fill:#ff0000;stroke:#ff0000;stroke-width:0.5;" x="97.668" xlink:href="#m590d835582" y="335.449028908"/>
     <use style="fill:#ff0000;stroke:#ff0000;stroke-width:0.5;" x="110.502" xlink:href="#m590d835582" y="321.080973909"/>
     <use style="fill:#ff0000;stroke:#ff0000;stroke-width:0.5;" x="127.521" xlink:href="#m590d835582" y="302.754360236"/>
     <use style="fill:#ff0000;stroke:#ff0000;stroke-width:0.5;" x="146.772" xlink:href="#m590d835582" y="284.32380921"/>
     <use style="fill:#ff0000;stroke:#ff0000;stroke-width:0.5;" x="168.534" xlink:href="#m590d835582" y="264.296793233"/>
     <use style="fill:#ff0000;stroke:#ff0000;stroke-width:0.5;" x="218.754" xlink:href="#m590d835582" y="228.512603683"/>
     <use style="fill:#ff0000;stroke:#ff0000;stroke-width:0.5;" x="264.789" xlink:href="#m590d835582" y="199.939447205"/>
     <use style="fill:#ff0000;stroke:#ff0000;stroke-width:0.5;" x="340.119" xlink:href="#m590d835582" y="157.270658042"/>
     <use style="fill:#ff0000;stroke:#ff0000;stroke-width:0.5;" x="402.894" xlink:href="#m590d835582" y="126.391525317"/>
     <use style="fill:#ff0000;stroke:#ff0000;stroke-width:0.5;" x="476.55" xlink:href="#m590d835582" y="86.0139584048"/>
    </g>
   </g>
   <g id="line2d_4">
    <path clip-path="url(#p7ff5b81e1d)" d="
M72 377.705
L78.975 365.317
L84.834 356.742
L97.668 338.992
L110.502 323.315
L127.521 305.638
L146.772 286.758
L168.534 267.537
L218.754 231.8
L264.789 205.551
L340.119 162.525
L402.894 129.584
L476.55 89.803" style="fill:none;stroke:#00bfbf;stroke-linecap:square;"/>
    <defs>
     <path d="
M0 1.5
C0.397805 1.5 0.77937 1.34195 1.06066 1.06066
C1.34195 0.77937 1.5 0.397805 1.5 0
C1.5 -0.397805 1.34195 -0.77937 1.06066 -1.06066
C0.77937 -1.34195 0.397805 -1.5 0 -1.5
C-0.397805 -1.5 -0.77937 -1.34195 -1.06066 -1.06066
C-1.34195 -0.77937 -1.5 -0.397805 -1.5 0
C-1.5 0.397805 -1.34195 0.77937 -1.06066 1.06066
C-0.77937 1.34195 -0.397805 1.5 0 1.5
z
" id="m79a42a2c34" style="stroke:#00bfbf;stroke-width:0.5;"/>
    </defs>
    <g clip-path="url(#p7ff5b81e1d)">
     <use style="fill:#00bfbf;stroke:#00bfbf;stroke-width:0.5;" x="72.0" xlink:href="#m79a42a2c34" y="377.70510044"/>
     <use style="fill:#00bfbf;stroke:#00bfbf;stroke-width:0.5;" x="78.975" xlink:href="#m79a42a2c34" y="365.317378913"/>
     <use style="fill:#00bfbf;stroke:#00bfbf;stroke-width:0.5;" x="84.834" xlink:href="#m79a42a2c34" y="356.741730368"/>
     <use style="fill:#00bfbf;stroke:#00bfbf;stroke-width:0.5;" x="97.668" xlink:href="#m79a42a2c34" y="338.992499136"/>
     <use style="fill:#00bfbf;stroke:#00bfbf;stroke-width:0.5;" x="110.502" xlink:href="#m79a42a2c34" y="323.31502451"/>
     <use style="fill:#00bfbf;stroke:#00bfbf;stroke-width:0.5;" x="127.521" xlink:href="#m79a42a2c34" y="305.637851006"/>
     <use style="fill:#00bfbf;stroke:#00bfbf;stroke-width:0.5;" x="146.772" xlink:href="#m79a42a2c34" y="286.757829093"/>
     <use style="fill:#00bfbf;stroke:#00bfbf;stroke-width:0.5;" x="168.534" xlink:href="#m79a42a2c34" y="267.537146766"/>
     <use style="fill:#00bfbf;stroke:#00bfbf;stroke-width:0.5;" x="218.754" xlink:href="#m79a42a2c34" y="231.800118139"/>
     <use style="fill:#00bfbf;stroke:#00bfbf;stroke-width:0.5;" x="264.789" xlink:href="#m79a42a2c34" y="205.551248325"/>
     <use style="fill:#00bfbf;stroke:#00bfbf;stroke-width:0.5;" x="340.119" xlink:href="#m79a42a2c34" y="162.524805193"/>
     <use style="fill:#00bfbf;stroke:#00bfbf;stroke-width:0.5;" x="402.894" xlink:href="#m79a42a2c34" y="129.583928548"/>
     <use style="fill:#00bfbf;stroke:#00bfbf;stroke-width:0.5;" x="476.55" xlink:href="#m79a42a2c34" y="89.802978184"/>
    </g>
   </g>
   <g id="line2d_5">
    <path clip-path="url(#p7ff5b81e1d)" d="
M72 377.859
L78.975 366.246
L84.834 357.391
L97.668 341.086
L110.502 325.466
L127.521 307.875
L146.772 289.735
L168.534 270.809
L218.754 235.702
L264.789 207.524
L340.119 166.893
L402.894 134.901
L476.55 92.7677" style="fill:none;stroke:#bf00bf;stroke-linecap:square;"/>
    <defs>
     <path d="
M0 1.5
C0.397805 1.5 0.77937 1.34195 1.06066 1.06066
C1.34195 0.77937 1.5 0.397805 1.5 0
C1.5 -0.397805 1.34195 -0.77937 1.06066 -1.06066
C0.77937 -1.34195 0.397805 -1.5 0 -1.5
C-0.397805 -1.5 -0.77937 -1.34195 -1.06066 -1.06066
C-1.34195 -0.77937 -1.5 -0.397805 -1.5 0
C-1.5 0.397805 -1.34195 0.77937 -1.06066 1.06066
C-0.77937 1.34195 -0.397805 1.5 0 1.5
z
" id="m494f39f36c" style="stroke:#bf00bf;stroke-width:0.5;"/>
    </defs>
    <g clip-path="url(#p7ff5b81e1d)">
     <use style="fill:#bf00bf;stroke:#bf00bf;stroke-width:0.5;" x="72.0" xlink:href="#m494f39f36c" y="377.859490579"/>
     <use style="fill:#bf00bf;stroke:#bf00bf;stroke-width:0.5;" x="78.975" xlink:href="#m494f39f36c" y="366.246487956"/>
     <use style="fill:#bf00bf;stroke:#bf00bf;stroke-width:0.5;" x="84.834" xlink:href="#m494f39f36c" y="357.39077594"/>
     <use style="fill:#bf00bf;stroke:#bf00bf;stroke-width:0.5;" x="97.668" xlink:href="#m494f39f36c" y="341.086122839"/>
     <use style="fill:#bf00bf;stroke:#bf00bf;stroke-width:0.5;" x="110.502" xlink:href="#m494f39f36c" y="325.465951031"/>
     <use style="fill:#bf00bf;stroke:#bf00bf;stroke-width:0.5;" x="127.521" xlink:href="#m494f39f36c" y="307.874931195"/>
     <use style="fill:#bf00bf;stroke:#bf00bf;stroke-width:0.5;" x="146.772" xlink:href="#m494f39f36c" y="289.734718603"/>
     <use style="fill:#bf00bf;stroke:#bf00bf;stroke-width:0.5;" x="168.534" xlink:href="#m494f39f36c" y="270.808590293"/>
     <use style="fill:#bf00bf;stroke:#bf00bf;stroke-width:0.5;" x="218.754" xlink:href="#m494f39f36c" y="235.701505806"/>
     <use style="fill:#bf00bf;stroke:#bf00bf;stroke-width:0.5;" x="264.789" xlink:href="#m494f39f36c" y="207.524204411"/>
     <use style="fill:#bf00bf;stroke:#bf00bf;stroke-width:0.5;" x="340.119" xlink:href="#m494f39f36c" y="166.893447302"/>
     <use style="fill:#bf00bf;stroke:#bf00bf;stroke-width:0.5;" x="402.894" xlink:href="#m494f39f36c" y="134.901308185"/>
     <use style="fill:#bf00bf;stroke:#bf00bf;stroke-width:0.5;" x="476.55" xlink:href="#m494f39f36c" y="92.7677479229"/>
    </g>
   </g>
   <g id="line2d_6">
    <path clip-path="url(#p7ff5b81e1d)" d="
M72 377.633
L78.975 366.94
L84.834 358.688
L97.668 342.24
L110.502 328.347
L127.521 311.817
L146.772 294.459
L168.534 275.716
L218.754 240.805
L264.789 212.222
L340.119 170.489
L402.894 139.139
L476.55 98.9253" style="fill:none;stroke:#bfbf00;stroke-linecap:square;"/>
    <defs>
     <path d="
M0 1.5
C0.397805 1.5 0.77937 1.34195 1.06066 1.06066
C1.34195 0.77937 1.5 0.397805 1.5 0
C1.5 -0.397805 1.34195 -0.77937 1.06066 -1.06066
C0.77937 -1.34195 0.397805 -1.5 0 -1.5
C-0.397805 -1.5 -0.77937 -1.34195 -1.06066 -1.06066
C-1.34195 -0.77937 -1.5 -0.397805 -1.5 0
C-1.5 0.397805 -1.34195 0.77937 -1.06066 1.06066
C-0.77937 1.34195 -0.397805 1.5 0 1.5
z
" id="mb08df4b085" style="stroke:#bfbf00;stroke-width:0.5;"/>
    </defs>
    <g clip-path="url(#p7ff5b81e1d)">
     <use style="fill:#bfbf00;stroke:#bfbf00;stroke-width:0.5;" x="72.0" xlink:href="#mb08df4b085" y="377.63251597"/>
     <use style="fill:#bfbf00;stroke:#bfbf00;stroke-width:0.5;" x="78.975" xlink:href="#mb08df4b085" y="366.939663617"/>
     <use style="fill:#bfbf00;stroke:#bfbf00;stroke-width:0.5;" x="84.834" xlink:href="#mb08df4b085" y="358.68754989"/>
     <use style="fill:#bfbf00;stroke:#bfbf00;stroke-width:0.5;" x="97.668" xlink:href="#mb08df4b085" y="342.240098805"/>
     <use style="fill:#bfbf00;stroke:#bfbf00;stroke-width:0.5;" x="110.502" xlink:href="#mb08df4b085" y="328.346939296"/>
     <use style="fill:#bfbf00;stroke:#bfbf00;stroke-width:0.5;" x="127.521" xlink:href="#mb08df4b085" y="311.816891737"/>
     <use style="fill:#bfbf00;stroke:#bfbf00;stroke-width:0.5;" x="146.772" xlink:href="#mb08df4b085" y="294.458906029"/>
     <use style="fill:#bfbf00;stroke:#bfbf00;stroke-width:0.5;" x="168.534" xlink:href="#mb08df4b085" y="275.716281253"/>
     <use style="fill:#bfbf00;stroke:#bfbf00;stroke-width:0.5;" x="218.754" xlink:href="#mb08df4b085" y="240.804555585"/>
     <use style="fill:#bfbf00;stroke:#bfbf00;stroke-width:0.5;" x="264.789" xlink:href="#mb08df4b085" y="212.221783019"/>
     <use style="fill:#bfbf00;stroke:#bfbf00;stroke-width:0.5;" x="340.119" xlink:href="#mb08df4b085" y="170.488820728"/>
     <use style="fill:#bfbf00;stroke:#bfbf00;stroke-width:0.5;" x="402.894" xlink:href="#mb08df4b085" y="139.13914029"/>
     <use style="fill:#bfbf00;stroke:#bfbf00;stroke-width:0.5;" x="476.55" xlink:href="#mb08df4b085" y="98.9253159238"/>
    </g>
   </g>
   <g id="line2d_7">
    <path clip-path="url(#p7ff5b81e1d)" d="
M72 378.08
L78.975 367.778
L84.834 359.74
L97.668 343.731
L110.502 329.99
L127.521 314.189
L146.772 297.191
L168.534 278.471
L218.754 245.002
L264.789 218.457
L340.119 175.326
L402.894 142.965
L476.55 104.175" style="fill:none;stroke:#000000;stroke-linecap:square;"/>
    <defs>
     <path d="
M0 1.5
C0.397805 1.5 0.77937 1.34195 1.06066 1.06066
C1.34195 0.77937 1.5 0.397805 1.5 0
C1.5 -0.397805 1.34195 -0.77937 1.06066 -1.06066
C0.77937 -1.34195 0.397805 -1.5 0 -1.5
C-0.397805 -1.5 -0.77937 -1.34195 -1.06066 -1.06066
C-1.34195 -0.77937 -1.5 -0.397805 -1.5 0
C-1.5 0.397805 -1.34195 0.77937 -1.06066 1.06066
C-0.77937 1.34195 -0.397805 1.5 0 1.5
z
" id="m8185dd89ac" style="stroke:#000000;stroke-width:0.5;"/>
    </defs>
    <g clip-path="url(#p7ff5b81e1d)">
     <use style="stroke:#000000;stroke-width:0.5;" x="72.0" xlink:href="#m8185dd89ac" y="378.079879231"/>
     <use style="stroke:#000000;stroke-width:0.5;" x="78.975" xlink:href="#m8185dd89ac" y="367.777745672"/>
     <use style="stroke:#000000;stroke-width:0.5;" x="84.834" xlink:href="#m8185dd89ac" y="359.740223484"/>
     <use style="stroke:#000000;stroke-width:0.5;" x="97.668" xlink:href="#m8185dd89ac" y="343.730914491"/>
     <use style="stroke:#000000;stroke-width:0.5;" x="110.502" xlink:href="#m8185dd89ac" y="329.989905654"/>
     <use style="stroke:#000000;stroke-width:0.5;" x="127.521" xlink:href="#m8185dd89ac" y="314.188865864"/>
     <use style="stroke:#000000;stroke-width:0.5;" x="146.772" xlink:href="#m8185dd89ac" y="297.19064166"/>
     <use style="stroke:#000000;stroke-width:0.5;" x="168.534" xlink:href="#m8185dd89ac" y="278.471069706"/>
     <use style="stroke:#000000;stroke-width:0.5;" x="218.754" xlink:href="#m8185dd89ac" y="245.001945983"/>
     <use style="stroke:#000000;stroke-width:0.5;" x="264.789" xlink:href="#m8185dd89ac" y="218.457336316"/>
     <use style="stroke:#000000;stroke-width:0.5;" x="340.119" xlink:href="#m8185dd89ac" y="175.325771223"/>
     <use style="stroke:#000000;stroke-width:0.5;" x="402.894" xlink:href="#m8185dd89ac" y="142.964780771"/>
     <use style="stroke:#000000;stroke-width:0.5;" x="476.55" xlink:href="#m8185dd89ac" y="104.175379452"/>
    </g>
   </g>
   <g id="patch_3">
    <path d="
M518.4 388.8
L518.4 43.2" style="fill:none;stroke:#000000;stroke-linecap:square;stroke-linejoin:miter;"/>
   </g>
   <g id="patch_4">
    <path d="
M72 43.2
L518.4 43.2" style="fill:none;stroke:#000000;stroke-linecap:square;stroke-linejoin:miter;"/>
   </g>
   <g id="patch_5">
    <path d="
M72 388.8
L518.4 388.8" style="fill:none;stroke:#000000;stroke-linecap:square;stroke-linejoin:miter;"/>
   </g>
   <g id="patch_6">
    <path d="
M72 388.8
L72 43.2" style="fill:none;stroke:#000000;stroke-linecap:square;stroke-linejoin:miter;"/>
   </g>
   <g id="matplotlib.axis_1">
    <g id="xtick_1">
     <g id="line2d_8">
      <path clip-path="url(#p7ff5b81e1d)" d="
M72 388.8
L72 43.2" style="fill:none;stroke:#000000;stroke-dasharray:1.000000,3.000000;stroke-dashoffset:0.0;stroke-width:0.5;"/>
     </g>
     <g id="line2d_9">
      <defs>
       <path d="
M0 0
L0 -4" id="mc7db9fdffb" style="stroke:#000000;stroke-width:0.5;"/>
      </defs>
      <g>
       <use style="stroke:#000000;stroke-width:0.5;" x="72.0" xlink:href="#mc7db9fdffb" y="388.8"/>
      </g>
     </g>
     <g id="line2d_10">
      <defs>
       <path d="
M0 0
L0 4" id="m5a7d422ac3" style="stroke:#000000;stroke-width:0.5;"/>
      </defs>
      <g>
       <use style="stroke:#000000;stroke-width:0.5;" x="72.0" xlink:href="#m5a7d422ac3" y="43.2"/>
      </g>
     </g>
     <g id="text_1">
      <!-- 0 -->
      <defs>
       <path d="
M31.7812 66.4062
Q24.1719 66.4062 20.3281 58.9062
Q16.5 51.4219 16.5 36.375
Q16.5 21.3906 20.3281 13.8906
Q24.1719 6.39062 31.7812 6.39062
Q39.4531 6.39062 43.2812 13.8906
Q47.125 21.3906 47.125 36.375
Q47.125 51.4219 43.2812 58.9062
Q39.4531 66.4062 31.7812 66.4062
M31.7812 74.2188
Q44.0469 74.2188 50.5156 64.5156
Q56.9844 54.8281 56.9844 36.375
Q56.9844 17.9688 50.5156 8.26562
Q44.0469 -1.42188 31.7812 -1.42188
Q19.5312 -1.42188 13.0625 8.26562
Q6.59375 17.9688 6.59375 36.375
Q6.59375 54.8281 13.0625 64.5156
Q19.5312 74.2188 31.7812 74.2188" id="BitstreamVeraSans-Roman-30"/>
      </defs>
      <g transform="translate(68.9765625 401.918125)scale(0.12 -0.12)">
       <use xlink:href="#BitstreamVeraSans-Roman-30"/>
      </g>
     </g>
    </g>
    <g id="xtick_2">
     <g id="line2d_11">
      <path clip-path="url(#p7ff5b81e1d)" d="
M127.8 388.8
L127.8 43.2" style="fill:none;stroke:#000000;stroke-dasharray:1.000000,3.000000;stroke-dashoffset:0.0;stroke-width:0.5;"/>
     </g>
     <g id="line2d_12">
      <g>
       <use style="stroke:#000000;stroke-width:0.5;" x="127.8" xlink:href="#mc7db9fdffb" y="388.8"/>
      </g>
     </g>
     <g id="line2d_13">
      <g>
       <use style="stroke:#000000;stroke-width:0.5;" x="127.8" xlink:href="#m5a7d422ac3" y="43.2"/>
      </g>
     </g>
     <g id="text_2">
      <!-- 200 -->
      <defs>
       <path d="
M19.1875 8.29688
L53.6094 8.29688
L53.6094 0
L7.32812 0
L7.32812 8.29688
Q12.9375 14.1094 22.625 23.8906
Q32.3281 33.6875 34.8125 36.5312
Q39.5469 41.8438 41.4219 45.5312
Q43.3125 49.2188 43.3125 52.7812
Q43.3125 58.5938 39.2344 62.25
Q35.1562 65.9219 28.6094 65.9219
Q23.9688 65.9219 18.8125 64.3125
Q13.6719 62.7031 7.8125 59.4219
L7.8125 69.3906
Q13.7656 71.7812 18.9375 73
Q24.125 74.2188 28.4219 74.2188
Q39.75 74.2188 46.4844 68.5469
Q53.2188 62.8906 53.2188 53.4219
Q53.2188 48.9219 51.5312 44.8906
Q49.8594 40.875 45.4062 35.4062
Q44.1875 33.9844 37.6406 27.2188
Q31.1094 20.4531 19.1875 8.29688" id="BitstreamVeraSans-Roman-32"/>
      </defs>
      <g transform="translate(117.185625 401.918125)scale(0.12 -0.12)">
       <use xlink:href="#BitstreamVeraSans-Roman-32"/>
       <use x="63.623046875" xlink:href="#BitstreamVeraSans-Roman-30"/>
       <use x="127.24609375" xlink:href="#BitstreamVeraSans-Roman-30"/>
      </g>
     </g>
    </g>
    <g id="xtick_3">
     <g id="line2d_14">
      <path clip-path="url(#p7ff5b81e1d)" d="
M183.6 388.8
L183.6 43.2" style="fill:none;stroke:#000000;stroke-dasharray:1.000000,3.000000;stroke-dashoffset:0.0;stroke-width:0.5;"/>
     </g>
     <g id="line2d_15">
      <g>
       <use style="stroke:#000000;stroke-width:0.5;" x="183.6" xlink:href="#mc7db9fdffb" y="388.8"/>
      </g>
     </g>
     <g id="line2d_16">
      <g>
       <use style="stroke:#000000;stroke-width:0.5;" x="183.6" xlink:href="#m5a7d422ac3" y="43.2"/>
      </g>
     </g>
     <g id="text_3">
      <!-- 400 -->
      <defs>
       <path d="
M37.7969 64.3125
L12.8906 25.3906
L37.7969 25.3906
z

M35.2031 72.9062
L47.6094 72.9062
L47.6094 25.3906
L58.0156 25.3906
L58.0156 17.1875
L47.6094 17.1875
L47.6094 0
L37.7969 0
L37.7969 17.1875
L4.89062 17.1875
L4.89062 26.7031
z
" id="BitstreamVeraSans-Roman-34"/>
      </defs>
      <g transform="translate(172.839375 401.918125)scale(0.12 -0.12)">
       <use xlink:href="#BitstreamVeraSans-Roman-34"/>
       <use x="63.623046875" xlink:href="#BitstreamVeraSans-Roman-30"/>
       <use x="127.24609375" xlink:href="#BitstreamVeraSans-Roman-30"/>
      </g>
     </g>
    </g>
    <g id="xtick_4">
     <g id="line2d_17">
      <path clip-path="url(#p7ff5b81e1d)" d="
M239.4 388.8
L239.4 43.2" style="fill:none;stroke:#000000;stroke-dasharray:1.000000,3.000000;stroke-dashoffset:0.0;stroke-width:0.5;"/>
     </g>
     <g id="line2d_18">
      <g>
       <use style="stroke:#000000;stroke-width:0.5;" x="239.4" xlink:href="#mc7db9fdffb" y="388.8"/>
      </g>
     </g>
     <g id="line2d_19">
      <g>
       <use style="stroke:#000000;stroke-width:0.5;" x="239.4" xlink:href="#m5a7d422ac3" y="43.2"/>
      </g>
     </g>
     <g id="text_4">
      <!-- 600 -->
      <defs>
       <path d="
M33.0156 40.375
Q26.375 40.375 22.4844 35.8281
Q18.6094 31.2969 18.6094 23.3906
Q18.6094 15.5312 22.4844 10.9531
Q26.375 6.39062 33.0156 6.39062
Q39.6562 6.39062 43.5312 10.9531
Q47.4062 15.5312 47.4062 23.3906
Q47.4062 31.2969 43.5312 35.8281
Q39.6562 40.375 33.0156 40.375
M52.5938 71.2969
L52.5938 62.3125
Q48.875 64.0625 45.0938 64.9844
Q41.3125 65.9219 37.5938 65.9219
Q27.8281 65.9219 22.6719 59.3281
Q17.5312 52.7344 16.7969 39.4062
Q19.6719 43.6562 24.0156 45.9219
Q28.375 48.1875 33.5938 48.1875
Q44.5781 48.1875 50.9531 41.5156
Q57.3281 34.8594 57.3281 23.3906
Q57.3281 12.1562 50.6875 5.35938
Q44.0469 -1.42188 33.0156 -1.42188
Q20.3594 -1.42188 13.6719 8.26562
Q6.98438 17.9688 6.98438 36.375
Q6.98438 53.6562 15.1875 63.9375
Q23.3906 74.2188 37.2031 74.2188
Q40.9219 74.2188 44.7031 73.4844
Q48.4844 72.75 52.5938 71.2969" id="BitstreamVeraSans-Roman-36"/>
      </defs>
      <g transform="translate(228.765 401.918125)scale(0.12 -0.12)">
       <use xlink:href="#BitstreamVeraSans-Roman-36"/>
       <use x="63.623046875" xlink:href="#BitstreamVeraSans-Roman-30"/>
       <use x="127.24609375" xlink:href="#BitstreamVeraSans-Roman-30"/>
      </g>
     </g>
    </g>
    <g id="xtick_5">
     <g id="line2d_20">
      <path clip-path="url(#p7ff5b81e1d)" d="
M295.2 388.8
L295.2 43.2" style="fill:none;stroke:#000000;stroke-dasharray:1.000000,3.000000;stroke-dashoffset:0.0;stroke-width:0.5;"/>
     </g>
     <g id="line2d_21">
      <g>
       <use style="stroke:#000000;stroke-width:0.5;" x="295.2" xlink:href="#mc7db9fdffb" y="388.8"/>
      </g>
     </g>
     <g id="line2d_22">
      <g>
       <use style="stroke:#000000;stroke-width:0.5;" x="295.2" xlink:href="#m5a7d422ac3" y="43.2"/>
      </g>
     </g>
     <g id="text_5">
      <!-- 800 -->
      <defs>
       <path d="
M31.7812 34.625
Q24.75 34.625 20.7188 30.8594
Q16.7031 27.0938 16.7031 20.5156
Q16.7031 13.9219 20.7188 10.1562
Q24.75 6.39062 31.7812 6.39062
Q38.8125 6.39062 42.8594 10.1719
Q46.9219 13.9688 46.9219 20.5156
Q46.9219 27.0938 42.8906 30.8594
Q38.875 34.625 31.7812 34.625
M21.9219 38.8125
Q15.5781 40.375 12.0312 44.7188
Q8.5 49.0781 8.5 55.3281
Q8.5 64.0625 14.7188 69.1406
Q20.9531 74.2188 31.7812 74.2188
Q42.6719 74.2188 48.875 69.1406
Q55.0781 64.0625 55.0781 55.3281
Q55.0781 49.0781 51.5312 44.7188
Q48 40.375 41.7031 38.8125
Q48.8281 37.1562 52.7969 32.3125
Q56.7812 27.4844 56.7812 20.5156
Q56.7812 9.90625 50.3125 4.23438
Q43.8438 -1.42188 31.7812 -1.42188
Q19.7344 -1.42188 13.25 4.23438
Q6.78125 9.90625 6.78125 20.5156
Q6.78125 27.4844 10.7812 32.3125
Q14.7969 37.1562 21.9219 38.8125
M18.3125 54.3906
Q18.3125 48.7344 21.8438 45.5625
Q25.3906 42.3906 31.7812 42.3906
Q38.1406 42.3906 41.7188 45.5625
Q45.3125 48.7344 45.3125 54.3906
Q45.3125 60.0625 41.7188 63.2344
Q38.1406 66.4062 31.7812 66.4062
Q25.3906 66.4062 21.8438 63.2344
Q18.3125 60.0625 18.3125 54.3906" id="BitstreamVeraSans-Roman-38"/>
      </defs>
      <g transform="translate(284.5528125 401.918125)scale(0.12 -0.12)">
       <use xlink:href="#BitstreamVeraSans-Roman-38"/>
       <use x="63.623046875" xlink:href="#BitstreamVeraSans-Roman-30"/>
       <use x="127.24609375" xlink:href="#BitstreamVeraSans-Roman-30"/>
      </g>
     </g>
    </g>
    <g id="xtick_6">
     <g id="line2d_23">
      <path clip-path="url(#p7ff5b81e1d)" d="
M351 388.8
L351 43.2" style="fill:none;stroke:#000000;stroke-dasharray:1.000000,3.000000;stroke-dashoffset:0.0;stroke-width:0.5;"/>
     </g>
     <g id="line2d_24">
      <g>
       <use style="stroke:#000000;stroke-width:0.5;" x="351.0" xlink:href="#mc7db9fdffb" y="388.8"/>
      </g>
     </g>
     <g id="line2d_25">
      <g>
       <use style="stroke:#000000;stroke-width:0.5;" x="351.0" xlink:href="#m5a7d422ac3" y="43.2"/>
      </g>
     </g>
     <g id="text_6">
      <!-- 1000 -->
      <defs>
       <path d="
M12.4062 8.29688
L28.5156 8.29688
L28.5156 63.9219
L10.9844 60.4062
L10.9844 69.3906
L28.4219 72.9062
L38.2812 72.9062
L38.2812 8.29688
L54.3906 8.29688
L54.3906 0
L12.4062 0
z
" id="BitstreamVeraSans-Roman-31"/>
      </defs>
      <g transform="translate(336.7875 401.918125)scale(0.12 -0.12)">
       <use xlink:href="#BitstreamVeraSans-Roman-31"/>
       <use x="63.623046875" xlink:href="#BitstreamVeraSans-Roman-30"/>
       <use x="127.24609375" xlink:href="#BitstreamVeraSans-Roman-30"/>
       <use x="190.869140625" xlink:href="#BitstreamVeraSans-Roman-30"/>
      </g>
     </g>
    </g>
    <g id="xtick_7">
     <g id="line2d_26">
      <path clip-path="url(#p7ff5b81e1d)" d="
M406.8 388.8
L406.8 43.2" style="fill:none;stroke:#000000;stroke-dasharray:1.000000,3.000000;stroke-dashoffset:0.0;stroke-width:0.5;"/>
     </g>
     <g id="line2d_27">
      <g>
       <use style="stroke:#000000;stroke-width:0.5;" x="406.8" xlink:href="#mc7db9fdffb" y="388.8"/>
      </g>
     </g>
     <g id="line2d_28">
      <g>
       <use style="stroke:#000000;stroke-width:0.5;" x="406.8" xlink:href="#m5a7d422ac3" y="43.2"/>
      </g>
     </g>
     <g id="text_7">
      <!-- 1200 -->
      <g transform="translate(392.5875 401.918125)scale(0.12 -0.12)">
       <use xlink:href="#BitstreamVeraSans-Roman-31"/>
       <use x="63.623046875" xlink:href="#BitstreamVeraSans-Roman-32"/>
       <use x="127.24609375" xlink:href="#BitstreamVeraSans-Roman-30"/>
       <use x="190.869140625" xlink:href="#BitstreamVeraSans-Roman-30"/>
      </g>
     </g>
    </g>
    <g id="xtick_8">
     <g id="line2d_29">
      <path clip-path="url(#p7ff5b81e1d)" d="
M462.6 388.8
L462.6 43.2" style="fill:none;stroke:#000000;stroke-dasharray:1.000000,3.000000;stroke-dashoffset:0.0;stroke-width:0.5;"/>
     </g>
     <g id="line2d_30">
      <g>
       <use style="stroke:#000000;stroke-width:0.5;" x="462.6" xlink:href="#mc7db9fdffb" y="388.8"/>
      </g>
     </g>
     <g id="line2d_31">
      <g>
       <use style="stroke:#000000;stroke-width:0.5;" x="462.6" xlink:href="#m5a7d422ac3" y="43.2"/>
      </g>
     </g>
     <g id="text_8">
      <!-- 1400 -->
      <g transform="translate(448.3875 401.918125)scale(0.12 -0.12)">
       <use xlink:href="#BitstreamVeraSans-Roman-31"/>
       <use x="63.623046875" xlink:href="#BitstreamVeraSans-Roman-34"/>
       <use x="127.24609375" xlink:href="#BitstreamVeraSans-Roman-30"/>
       <use x="190.869140625" xlink:href="#BitstreamVeraSans-Roman-30"/>
      </g>
     </g>
    </g>
    <g id="xtick_9">
     <g id="line2d_32">
      <path clip-path="url(#p7ff5b81e1d)" d="
M518.4 388.8
L518.4 43.2" style="fill:none;stroke:#000000;stroke-dasharray:1.000000,3.000000;stroke-dashoffset:0.0;stroke-width:0.5;"/>
     </g>
     <g id="line2d_33">
      <g>
       <use style="stroke:#000000;stroke-width:0.5;" x="518.4" xlink:href="#mc7db9fdffb" y="388.8"/>
      </g>
     </g>
     <g id="line2d_34">
      <g>
       <use style="stroke:#000000;stroke-width:0.5;" x="518.4" xlink:href="#m5a7d422ac3" y="43.2"/>
      </g>
     </g>
     <g id="text_9">
      <!-- 1600 -->
      <g transform="translate(504.1875 401.918125)scale(0.12 -0.12)">
       <use xlink:href="#BitstreamVeraSans-Roman-31"/>
       <use x="63.623046875" xlink:href="#BitstreamVeraSans-Roman-36"/>
       <use x="127.24609375" xlink:href="#BitstreamVeraSans-Roman-30"/>
       <use x="190.869140625" xlink:href="#BitstreamVeraSans-Roman-30"/>
      </g>
     </g>
    </g>
    <g id="text_10">
     <!-- Green power (mW) -->
     <defs>
      <path d="
M3.32812 72.9062
L13.2812 72.9062
L28.6094 11.2812
L43.8906 72.9062
L54.9844 72.9062
L70.3125 11.2812
L85.5938 72.9062
L95.6094 72.9062
L77.2969 0
L64.8906 0
L49.5156 63.2812
L33.9844 0
L21.5781 0
z
" id="BitstreamVeraSans-Roman-57"/>
      <path d="
M18.1094 8.20312
L18.1094 -20.7969
L9.07812 -20.7969
L9.07812 54.6875
L18.1094 54.6875
L18.1094 46.3906
Q20.9531 51.2656 25.2656 53.625
Q29.5938 56 35.5938 56
Q45.5625 56 51.7812 48.0938
Q58.0156 40.1875 58.0156 27.2969
Q58.0156 14.4062 51.7812 6.48438
Q45.5625 -1.42188 35.5938 -1.42188
Q29.5938 -1.42188 25.2656 0.953125
Q20.9531 3.32812 18.1094 8.20312
M48.6875 27.2969
Q48.6875 37.2031 44.6094 42.8438
Q40.5312 48.4844 33.4062 48.4844
Q26.2656 48.4844 22.1875 42.8438
Q18.1094 37.2031 18.1094 27.2969
Q18.1094 17.3906 22.1875 11.75
Q26.2656 6.10938 33.4062 6.10938
Q40.5312 6.10938 44.6094 11.75
Q48.6875 17.3906 48.6875 27.2969" id="BitstreamVeraSans-Roman-70"/>
      <path d="
M8.01562 75.875
L15.8281 75.875
Q23.1406 64.3594 26.7812 53.3125
Q30.4219 42.2812 30.4219 31.3906
Q30.4219 20.4531 26.7812 9.375
Q23.1406 -1.70312 15.8281 -13.1875
L8.01562 -13.1875
Q14.5 -2 17.7031 9.0625
Q20.9062 20.125 20.9062 31.3906
Q20.9062 42.6719 17.7031 53.6562
Q14.5 64.6562 8.01562 75.875" id="BitstreamVeraSans-Roman-29"/>
      <path d="
M59.5156 10.4062
L59.5156 29.9844
L43.4062 29.9844
L43.4062 38.0938
L69.2812 38.0938
L69.2812 6.78125
Q63.5781 2.73438 56.6875 0.65625
Q49.8125 -1.42188 42 -1.42188
Q24.9062 -1.42188 15.25 8.5625
Q5.60938 18.5625 5.60938 36.375
Q5.60938 54.25 15.25 64.2344
Q24.9062 74.2188 42 74.2188
Q49.125 74.2188 55.5469 72.4531
Q61.9688 70.7031 67.3906 67.2812
L67.3906 56.7812
Q61.9219 61.4219 55.7656 63.7656
Q49.6094 66.1094 42.8281 66.1094
Q29.4375 66.1094 22.7188 58.6406
Q16.0156 51.1719 16.0156 36.375
Q16.0156 21.625 22.7188 14.1562
Q29.4375 6.6875 42.8281 6.6875
Q48.0469 6.6875 52.1406 7.59375
Q56.25 8.5 59.5156 10.4062" id="BitstreamVeraSans-Roman-47"/>
      <path d="
M56.2031 29.5938
L56.2031 25.2031
L14.8906 25.2031
Q15.4844 15.9219 20.4844 11.0625
Q25.4844 6.20312 34.4219 6.20312
Q39.5938 6.20312 44.4531 7.46875
Q49.3125 8.73438 54.1094 11.2812
L54.1094 2.78125
Q49.2656 0.734375 44.1875 -0.34375
Q39.1094 -1.42188 33.8906 -1.42188
Q20.7969 -1.42188 13.1562 6.1875
Q5.51562 13.8125 5.51562 26.8125
Q5.51562 40.2344 12.7656 48.1094
Q20.0156 56 32.3281 56
Q43.3594 56 49.7812 48.8906
Q56.2031 41.7969 56.2031 29.5938
M47.2188 32.2344
Q47.125 39.5938 43.0938 43.9844
Q39.0625 48.3906 32.4219 48.3906
Q24.9062 48.3906 20.3906 44.1406
Q15.875 39.8906 15.1875 32.1719
z
" id="BitstreamVeraSans-Roman-65"/>
      <path d="
M52 44.1875
Q55.375 50.25 60.0625 53.125
Q64.75 56 71.0938 56
Q79.6406 56 84.2812 50.0156
Q88.9219 44.0469 88.9219 33.0156
L88.9219 0
L79.8906 0
L79.8906 32.7188
Q79.8906 40.5781 77.0938 44.375
Q74.3125 48.1875 68.6094 48.1875
Q61.625 48.1875 57.5625 43.5469
Q53.5156 38.9219 53.5156 30.9062
L53.5156 0
L44.4844 0
L44.4844 32.7188
Q44.4844 40.625 41.7031 44.4062
Q38.9219 48.1875 33.1094 48.1875
Q26.2188 48.1875 22.1562 43.5312
Q18.1094 38.875 18.1094 30.9062
L18.1094 0
L9.07812 0
L9.07812 54.6875
L18.1094 54.6875
L18.1094 46.1875
Q21.1875 51.2188 25.4844 53.6094
Q29.7812 56 35.6875 56
Q41.6562 56 45.8281 52.9688
Q50 49.9531 52 44.1875" id="BitstreamVeraSans-Roman-6d"/>
      <path id="BitstreamVeraSans-Roman-20"/>
      <path d="
M31 75.875
Q24.4688 64.6562 21.2812 53.6562
Q18.1094 42.6719 18.1094 31.3906
Q18.1094 20.125 21.3125 9.0625
Q24.5156 -2 31 -13.1875
L23.1875 -13.1875
Q15.875 -1.70312 12.2344 9.375
Q8.59375 20.4531 8.59375 31.3906
Q8.59375 42.2812 12.2031 53.3125
Q15.8281 64.3594 23.1875 75.875
z
" id="BitstreamVeraSans-Roman-28"/>
      <path d="
M4.20312 54.6875
L13.1875 54.6875
L24.4219 12.0156
L35.5938 54.6875
L46.1875 54.6875
L57.4219 12.0156
L68.6094 54.6875
L77.5938 54.6875
L63.2812 0
L52.6875 0
L40.9219 44.8281
L29.1094 0
L18.5 0
z
" id="BitstreamVeraSans-Roman-77"/>
      <path d="
M41.1094 46.2969
Q39.5938 47.1719 37.8125 47.5781
Q36.0312 48 33.8906 48
Q26.2656 48 22.1875 43.0469
Q18.1094 38.0938 18.1094 28.8125
L18.1094 0
L9.07812 0
L9.07812 54.6875
L18.1094 54.6875
L18.1094 46.1875
Q20.9531 51.1719 25.4844 53.5781
Q30.0312 56 36.5312 56
Q37.4531 56 38.5781 55.875
Q39.7031 55.7656 41.0625 55.5156
z
" id="BitstreamVeraSans-Roman-72"/>
      <path d="
M30.6094 48.3906
Q23.3906 48.3906 19.1875 42.75
Q14.9844 37.1094 14.9844 27.2969
Q14.9844 17.4844 19.1562 11.8438
Q23.3438 6.20312 30.6094 6.20312
Q37.7969 6.20312 41.9844 11.8594
Q46.1875 17.5312 46.1875 27.2969
Q46.1875 37.0156 41.9844 42.7031
Q37.7969 48.3906 30.6094 48.3906
M30.6094 56
Q42.3281 56 49.0156 48.375
Q55.7188 40.7656 55.7188 27.2969
Q55.7188 13.875 49.0156 6.21875
Q42.3281 -1.42188 30.6094 -1.42188
Q18.8438 -1.42188 12.1719 6.21875
Q5.51562 13.875 5.51562 27.2969
Q5.51562 40.7656 12.1719 48.375
Q18.8438 56 30.6094 56" id="BitstreamVeraSans-Roman-6f"/>
      <path d="
M54.8906 33.0156
L54.8906 0
L45.9062 0
L45.9062 32.7188
Q45.9062 40.4844 42.875 44.3281
Q39.8438 48.1875 33.7969 48.1875
Q26.5156 48.1875 22.3125 43.5469
Q18.1094 38.9219 18.1094 30.9062
L18.1094 0
L9.07812 0
L9.07812 54.6875
L18.1094 54.6875
L18.1094 46.1875
Q21.3438 51.125 25.7031 53.5625
Q30.0781 56 35.7969 56
Q45.2188 56 50.0469 50.1719
Q54.8906 44.3438 54.8906 33.0156" id="BitstreamVeraSans-Roman-6e"/>
     </defs>
     <g transform="translate(238.730625 418.531875)scale(0.12 -0.12)">
      <use xlink:href="#BitstreamVeraSans-Roman-47"/>
      <use x="77.490234375" xlink:href="#BitstreamVeraSans-Roman-72"/>
      <use x="116.353515625" xlink:href="#BitstreamVeraSans-Roman-65"/>
      <use x="177.876953125" xlink:href="#BitstreamVeraSans-Roman-65"/>
      <use x="239.400390625" xlink:href="#BitstreamVeraSans-Roman-6e"/>
      <use x="302.779296875" xlink:href="#BitstreamVeraSans-Roman-20"/>
      <use x="334.56640625" xlink:href="#BitstreamVeraSans-Roman-70"/>
      <use x="398.04296875" xlink:href="#BitstreamVeraSans-Roman-6f"/>
      <use x="459.224609375" xlink:href="#BitstreamVeraSans-Roman-77"/>
      <use x="541.01171875" xlink:href="#BitstreamVeraSans-Roman-65"/>
      <use x="602.53515625" xlink:href="#BitstreamVeraSans-Roman-72"/>
      <use x="643.6484375" xlink:href="#BitstreamVeraSans-Roman-20"/>
      <use x="675.435546875" xlink:href="#BitstreamVeraSans-Roman-28"/>
      <use x="714.44921875" xlink:href="#BitstreamVeraSans-Roman-6d"/>
      <use x="811.861328125" xlink:href="#BitstreamVeraSans-Roman-57"/>
      <use x="910.73828125" xlink:href="#BitstreamVeraSans-Roman-29"/>
     </g>
    </g>
   </g>
   <g id="matplotlib.axis_2">
    <g id="ytick_1">
     <g id="line2d_35">
      <path clip-path="url(#p7ff5b81e1d)" d="
M72 388.8
L518.4 388.8" style="fill:none;stroke:#000000;stroke-dasharray:1.000000,3.000000;stroke-dashoffset:0.0;stroke-width:0.5;"/>
     </g>
     <g id="line2d_36">
      <defs>
       <path d="
M0 0
L4 0" id="md7965d1ba0" style="stroke:#000000;stroke-width:0.5;"/>
      </defs>
      <g>
       <use style="stroke:#000000;stroke-width:0.5;" x="72.0" xlink:href="#md7965d1ba0" y="388.8"/>
      </g>
     </g>
     <g id="line2d_37">
      <defs>
       <path d="
M0 0
L-4 0" id="md9a1c1a7cd" style="stroke:#000000;stroke-width:0.5;"/>
      </defs>
      <g>
       <use style="stroke:#000000;stroke-width:0.5;" x="518.4" xlink:href="#md9a1c1a7cd" y="388.8"/>
      </g>
     </g>
     <g id="text_11">
      <!-- 100 -->
      <g transform="translate(47.21 392.11125)scale(0.12 -0.12)">
       <use xlink:href="#BitstreamVeraSans-Roman-31"/>
       <use x="63.623046875" xlink:href="#BitstreamVeraSans-Roman-30"/>
       <use x="127.24609375" xlink:href="#BitstreamVeraSans-Roman-30"/>
      </g>
     </g>
    </g>
    <g id="ytick_2">
     <g id="line2d_38">
      <path clip-path="url(#p7ff5b81e1d)" d="
M72 350.4
L518.4 350.4" style="fill:none;stroke:#000000;stroke-dasharray:1.000000,3.000000;stroke-dashoffset:0.0;stroke-width:0.5;"/>
     </g>
     <g id="line2d_39">
      <g>
       <use style="stroke:#000000;stroke-width:0.5;" x="72.0" xlink:href="#md7965d1ba0" y="350.4"/>
      </g>
     </g>
     <g id="line2d_40">
      <g>
       <use style="stroke:#000000;stroke-width:0.5;" x="518.4" xlink:href="#md9a1c1a7cd" y="350.4"/>
      </g>
     </g>
     <g id="text_12">
      <!-- 110 -->
      <g transform="translate(47.21 353.71125)scale(0.12 -0.12)">
       <use xlink:href="#BitstreamVeraSans-Roman-31"/>
       <use x="63.623046875" xlink:href="#BitstreamVeraSans-Roman-31"/>
       <use x="127.24609375" xlink:href="#BitstreamVeraSans-Roman-30"/>
      </g>
     </g>
    </g>
    <g id="ytick_3">
     <g id="line2d_41">
      <path clip-path="url(#p7ff5b81e1d)" d="
M72 312
L518.4 312" style="fill:none;stroke:#000000;stroke-dasharray:1.000000,3.000000;stroke-dashoffset:0.0;stroke-width:0.5;"/>
     </g>
     <g id="line2d_42">
      <g>
       <use style="stroke:#000000;stroke-width:0.5;" x="72.0" xlink:href="#md7965d1ba0" y="312.0"/>
      </g>
     </g>
     <g id="line2d_43">
      <g>
       <use style="stroke:#000000;stroke-width:0.5;" x="518.4" xlink:href="#md9a1c1a7cd" y="312.0"/>
      </g>
     </g>
     <g id="text_13">
      <!-- 120 -->
      <g transform="translate(47.21 315.31125)scale(0.12 -0.12)">
       <use xlink:href="#BitstreamVeraSans-Roman-31"/>
       <use x="63.623046875" xlink:href="#BitstreamVeraSans-Roman-32"/>
       <use x="127.24609375" xlink:href="#BitstreamVeraSans-Roman-30"/>
      </g>
     </g>
    </g>
    <g id="ytick_4">
     <g id="line2d_44">
      <path clip-path="url(#p7ff5b81e1d)" d="
M72 273.6
L518.4 273.6" style="fill:none;stroke:#000000;stroke-dasharray:1.000000,3.000000;stroke-dashoffset:0.0;stroke-width:0.5;"/>
     </g>
     <g id="line2d_45">
      <g>
       <use style="stroke:#000000;stroke-width:0.5;" x="72.0" xlink:href="#md7965d1ba0" y="273.6"/>
      </g>
     </g>
     <g id="line2d_46">
      <g>
       <use style="stroke:#000000;stroke-width:0.5;" x="518.4" xlink:href="#md9a1c1a7cd" y="273.6"/>
      </g>
     </g>
     <g id="text_14">
      <!-- 130 -->
      <defs>
       <path d="
M40.5781 39.3125
Q47.6562 37.7969 51.625 33
Q55.6094 28.2188 55.6094 21.1875
Q55.6094 10.4062 48.1875 4.48438
Q40.7656 -1.42188 27.0938 -1.42188
Q22.5156 -1.42188 17.6562 -0.515625
Q12.7969 0.390625 7.625 2.20312
L7.625 11.7188
Q11.7188 9.32812 16.5938 8.10938
Q21.4844 6.89062 26.8125 6.89062
Q36.0781 6.89062 40.9375 10.5469
Q45.7969 14.2031 45.7969 21.1875
Q45.7969 27.6406 41.2812 31.2656
Q36.7656 34.9062 28.7188 34.9062
L20.2188 34.9062
L20.2188 43.0156
L29.1094 43.0156
Q36.375 43.0156 40.2344 45.9219
Q44.0938 48.8281 44.0938 54.2969
Q44.0938 59.9062 40.1094 62.9062
Q36.1406 65.9219 28.7188 65.9219
Q24.6562 65.9219 20.0156 65.0312
Q15.375 64.1562 9.8125 62.3125
L9.8125 71.0938
Q15.4375 72.6562 20.3438 73.4375
Q25.25 74.2188 29.5938 74.2188
Q40.8281 74.2188 47.3594 69.1094
Q53.9062 64.0156 53.9062 55.3281
Q53.9062 49.2656 50.4375 45.0938
Q46.9688 40.9219 40.5781 39.3125" id="BitstreamVeraSans-Roman-33"/>
      </defs>
      <g transform="translate(47.21 276.91125)scale(0.12 -0.12)">
       <use xlink:href="#BitstreamVeraSans-Roman-31"/>
       <use x="63.623046875" xlink:href="#BitstreamVeraSans-Roman-33"/>
       <use x="127.24609375" xlink:href="#BitstreamVeraSans-Roman-30"/>
      </g>
     </g>
    </g>
    <g id="ytick_5">
     <g id="line2d_47">
      <path clip-path="url(#p7ff5b81e1d)" d="
M72 235.2
L518.4 235.2" style="fill:none;stroke:#000000;stroke-dasharray:1.000000,3.000000;stroke-dashoffset:0.0;stroke-width:0.5;"/>
     </g>
     <g id="line2d_48">
      <g>
       <use style="stroke:#000000;stroke-width:0.5;" x="72.0" xlink:href="#md7965d1ba0" y="235.2"/>
      </g>
     </g>
     <g id="line2d_49">
      <g>
       <use style="stroke:#000000;stroke-width:0.5;" x="518.4" xlink:href="#md9a1c1a7cd" y="235.2"/>
      </g>
     </g>
     <g id="text_15">
      <!-- 140 -->
      <g transform="translate(47.21 238.51125)scale(0.12 -0.12)">
       <use xlink:href="#BitstreamVeraSans-Roman-31"/>
       <use x="63.623046875" xlink:href="#BitstreamVeraSans-Roman-34"/>
       <use x="127.24609375" xlink:href="#BitstreamVeraSans-Roman-30"/>
      </g>
     </g>
    </g>
    <g id="ytick_6">
     <g id="line2d_50">
      <path clip-path="url(#p7ff5b81e1d)" d="
M72 196.8
L518.4 196.8" style="fill:none;stroke:#000000;stroke-dasharray:1.000000,3.000000;stroke-dashoffset:0.0;stroke-width:0.5;"/>
     </g>
     <g id="line2d_51">
      <g>
       <use style="stroke:#000000;stroke-width:0.5;" x="72.0" xlink:href="#md7965d1ba0" y="196.8"/>
      </g>
     </g>
     <g id="line2d_52">
      <g>
       <use style="stroke:#000000;stroke-width:0.5;" x="518.4" xlink:href="#md9a1c1a7cd" y="196.8"/>
      </g>
     </g>
     <g id="text_16">
      <!-- 150 -->
      <defs>
       <path d="
M10.7969 72.9062
L49.5156 72.9062
L49.5156 64.5938
L19.8281 64.5938
L19.8281 46.7344
Q21.9688 47.4688 24.1094 47.8281
Q26.2656 48.1875 28.4219 48.1875
Q40.625 48.1875 47.75 41.5
Q54.8906 34.8125 54.8906 23.3906
Q54.8906 11.625 47.5625 5.09375
Q40.2344 -1.42188 26.9062 -1.42188
Q22.3125 -1.42188 17.5469 -0.640625
Q12.7969 0.140625 7.71875 1.70312
L7.71875 11.625
Q12.1094 9.23438 16.7969 8.0625
Q21.4844 6.89062 26.7031 6.89062
Q35.1562 6.89062 40.0781 11.3281
Q45.0156 15.7656 45.0156 23.3906
Q45.0156 31 40.0781 35.4375
Q35.1562 39.8906 26.7031 39.8906
Q22.75 39.8906 18.8125 39.0156
Q14.8906 38.1406 10.7969 36.2812
z
" id="BitstreamVeraSans-Roman-35"/>
      </defs>
      <g transform="translate(47.21 200.11125)scale(0.12 -0.12)">
       <use xlink:href="#BitstreamVeraSans-Roman-31"/>
       <use x="63.623046875" xlink:href="#BitstreamVeraSans-Roman-35"/>
       <use x="127.24609375" xlink:href="#BitstreamVeraSans-Roman-30"/>
      </g>
     </g>
    </g>
    <g id="ytick_7">
     <g id="line2d_53">
      <path clip-path="url(#p7ff5b81e1d)" d="
M72 158.4
L518.4 158.4" style="fill:none;stroke:#000000;stroke-dasharray:1.000000,3.000000;stroke-dashoffset:0.0;stroke-width:0.5;"/>
     </g>
     <g id="line2d_54">
      <g>
       <use style="stroke:#000000;stroke-width:0.5;" x="72.0" xlink:href="#md7965d1ba0" y="158.4"/>
      </g>
     </g>
     <g id="line2d_55">
      <g>
       <use style="stroke:#000000;stroke-width:0.5;" x="518.4" xlink:href="#md9a1c1a7cd" y="158.4"/>
      </g>
     </g>
     <g id="text_17">
      <!-- 160 -->
      <g transform="translate(47.21 161.71125)scale(0.12 -0.12)">
       <use xlink:href="#BitstreamVeraSans-Roman-31"/>
       <use x="63.623046875" xlink:href="#BitstreamVeraSans-Roman-36"/>
       <use x="127.24609375" xlink:href="#BitstreamVeraSans-Roman-30"/>
      </g>
     </g>
    </g>
    <g id="ytick_8">
     <g id="line2d_56">
      <path clip-path="url(#p7ff5b81e1d)" d="
M72 120
L518.4 120" style="fill:none;stroke:#000000;stroke-dasharray:1.000000,3.000000;stroke-dashoffset:0.0;stroke-width:0.5;"/>
     </g>
     <g id="line2d_57">
      <g>
       <use style="stroke:#000000;stroke-width:0.5;" x="72.0" xlink:href="#md7965d1ba0" y="120.0"/>
      </g>
     </g>
     <g id="line2d_58">
      <g>
       <use style="stroke:#000000;stroke-width:0.5;" x="518.4" xlink:href="#md9a1c1a7cd" y="120.0"/>
      </g>
     </g>
     <g id="text_18">
      <!-- 170 -->
      <defs>
       <path d="
M8.20312 72.9062
L55.0781 72.9062
L55.0781 68.7031
L28.6094 0
L18.3125 0
L43.2188 64.5938
L8.20312 64.5938
z
" id="BitstreamVeraSans-Roman-37"/>
      </defs>
      <g transform="translate(47.21 123.31125)scale(0.12 -0.12)">
       <use xlink:href="#BitstreamVeraSans-Roman-31"/>
       <use x="63.623046875" xlink:href="#BitstreamVeraSans-Roman-37"/>
       <use x="127.24609375" xlink:href="#BitstreamVeraSans-Roman-30"/>
      </g>
     </g>
    </g>
    <g id="ytick_9">
     <g id="line2d_59">
      <path clip-path="url(#p7ff5b81e1d)" d="
M72 81.6
L518.4 81.6" style="fill:none;stroke:#000000;stroke-dasharray:1.000000,3.000000;stroke-dashoffset:0.0;stroke-width:0.5;"/>
     </g>
     <g id="line2d_60">
      <g>
       <use style="stroke:#000000;stroke-width:0.5;" x="72.0" xlink:href="#md7965d1ba0" y="81.6"/>
      </g>
     </g>
     <g id="line2d_61">
      <g>
       <use style="stroke:#000000;stroke-width:0.5;" x="518.4" xlink:href="#md9a1c1a7cd" y="81.6"/>
      </g>
     </g>
     <g id="text_19">
      <!-- 180 -->
      <g transform="translate(47.21 84.91125)scale(0.12 -0.12)">
       <use xlink:href="#BitstreamVeraSans-Roman-31"/>
       <use x="63.623046875" xlink:href="#BitstreamVeraSans-Roman-38"/>
       <use x="127.24609375" xlink:href="#BitstreamVeraSans-Roman-30"/>
      </g>
     </g>
    </g>
    <g id="ytick_10">
     <g id="line2d_62">
      <path clip-path="url(#p7ff5b81e1d)" d="
M72 43.2
L518.4 43.2" style="fill:none;stroke:#000000;stroke-dasharray:1.000000,3.000000;stroke-dashoffset:0.0;stroke-width:0.5;"/>
     </g>
     <g id="line2d_63">
      <g>
       <use style="stroke:#000000;stroke-width:0.5;" x="72.0" xlink:href="#md7965d1ba0" y="43.2"/>
      </g>
     </g>
     <g id="line2d_64">
      <g>
       <use style="stroke:#000000;stroke-width:0.5;" x="518.4" xlink:href="#md9a1c1a7cd" y="43.2"/>
      </g>
     </g>
     <g id="text_20">
      <!-- 190 -->
      <defs>
       <path d="
M10.9844 1.51562
L10.9844 10.5
Q14.7031 8.73438 18.5 7.8125
Q22.3125 6.89062 25.9844 6.89062
Q35.75 6.89062 40.8906 13.4531
Q46.0469 20.0156 46.7812 33.4062
Q43.9531 29.2031 39.5938 26.9531
Q35.25 24.7031 29.9844 24.7031
Q19.0469 24.7031 12.6719 31.3125
Q6.29688 37.9375 6.29688 49.4219
Q6.29688 60.6406 12.9375 67.4219
Q19.5781 74.2188 30.6094 74.2188
Q43.2656 74.2188 49.9219 64.5156
Q56.5938 54.8281 56.5938 36.375
Q56.5938 19.1406 48.4062 8.85938
Q40.2344 -1.42188 26.4219 -1.42188
Q22.7031 -1.42188 18.8906 -0.6875
Q15.0938 0.046875 10.9844 1.51562
M30.6094 32.4219
Q37.25 32.4219 41.125 36.9531
Q45.0156 41.5 45.0156 49.4219
Q45.0156 57.2812 41.125 61.8438
Q37.25 66.4062 30.6094 66.4062
Q23.9688 66.4062 20.0938 61.8438
Q16.2188 57.2812 16.2188 49.4219
Q16.2188 41.5 20.0938 36.9531
Q23.9688 32.4219 30.6094 32.4219" id="BitstreamVeraSans-Roman-39"/>
      </defs>
      <g transform="translate(47.21 46.51125)scale(0.12 -0.12)">
       <use xlink:href="#BitstreamVeraSans-Roman-31"/>
       <use x="63.623046875" xlink:href="#BitstreamVeraSans-Roman-39"/>
       <use x="127.24609375" xlink:href="#BitstreamVeraSans-Roman-30"/>
      </g>
     </g>
    </g>
    <g id="text_21">
     <!-- Fluorescence light signal (CMOS pixel counts) -->
     <defs>
      <path d="
M8.5 21.5781
L8.5 54.6875
L17.4844 54.6875
L17.4844 21.9219
Q17.4844 14.1562 20.5 10.2656
Q23.5312 6.39062 29.5938 6.39062
Q36.8594 6.39062 41.0781 11.0312
Q45.3125 15.6719 45.3125 23.6875
L45.3125 54.6875
L54.2969 54.6875
L54.2969 0
L45.3125 0
L45.3125 8.40625
Q42.0469 3.42188 37.7188 1
Q33.4062 -1.42188 27.6875 -1.42188
Q18.2656 -1.42188 13.375 4.4375
Q8.5 10.2969 8.5 21.5781" id="BitstreamVeraSans-Roman-75"/>
      <path d="
M48.7812 52.5938
L48.7812 44.1875
Q44.9688 46.2969 41.1406 47.3438
Q37.3125 48.3906 33.4062 48.3906
Q24.6562 48.3906 19.8125 42.8438
Q14.9844 37.3125 14.9844 27.2969
Q14.9844 17.2812 19.8125 11.7344
Q24.6562 6.20312 33.4062 6.20312
Q37.3125 6.20312 41.1406 7.25
Q44.9688 8.29688 48.7812 10.4062
L48.7812 2.09375
Q45.0156 0.34375 40.9844 -0.53125
Q36.9688 -1.42188 32.4219 -1.42188
Q20.0625 -1.42188 12.7812 6.34375
Q5.51562 14.1094 5.51562 27.2969
Q5.51562 40.6719 12.8594 48.3281
Q20.2188 56 33.0156 56
Q37.1562 56 41.1094 55.1406
Q45.0625 54.2969 48.7812 52.5938" id="BitstreamVeraSans-Roman-63"/>
      <path d="
M54.8906 33.0156
L54.8906 0
L45.9062 0
L45.9062 32.7188
Q45.9062 40.4844 42.875 44.3281
Q39.8438 48.1875 33.7969 48.1875
Q26.5156 48.1875 22.3125 43.5469
Q18.1094 38.9219 18.1094 30.9062
L18.1094 0
L9.07812 0
L9.07812 75.9844
L18.1094 75.9844
L18.1094 46.1875
Q21.3438 51.125 25.7031 53.5625
Q30.0781 56 35.7969 56
Q45.2188 56 50.0469 50.1719
Q54.8906 44.3438 54.8906 33.0156" id="BitstreamVeraSans-Roman-68"/>
      <path d="
M9.42188 75.9844
L18.4062 75.9844
L18.4062 0
L9.42188 0
z
" id="BitstreamVeraSans-Roman-6c"/>
      <path d="
M9.8125 72.9062
L51.7031 72.9062
L51.7031 64.5938
L19.6719 64.5938
L19.6719 43.1094
L48.5781 43.1094
L48.5781 34.8125
L19.6719 34.8125
L19.6719 0
L9.8125 0
z
" id="BitstreamVeraSans-Roman-46"/>
      <path d="
M64.4062 67.2812
L64.4062 56.8906
Q59.4219 61.5312 53.7812 63.8125
Q48.1406 66.1094 41.7969 66.1094
Q29.2969 66.1094 22.6562 58.4688
Q16.0156 50.8281 16.0156 36.375
Q16.0156 21.9688 22.6562 14.3281
Q29.2969 6.6875 41.7969 6.6875
Q48.1406 6.6875 53.7812 8.98438
Q59.4219 11.2812 64.4062 15.9219
L64.4062 5.60938
Q59.2344 2.09375 53.4375 0.328125
Q47.6562 -1.42188 41.2188 -1.42188
Q24.6562 -1.42188 15.125 8.70312
Q5.60938 18.8438 5.60938 36.375
Q5.60938 53.9531 15.125 64.0781
Q24.6562 74.2188 41.2188 74.2188
Q47.75 74.2188 53.5312 72.4844
Q59.3281 70.75 64.4062 67.2812" id="BitstreamVeraSans-Roman-43"/>
      <path d="
M9.8125 72.9062
L24.5156 72.9062
L43.1094 23.2969
L61.8125 72.9062
L76.5156 72.9062
L76.5156 0
L66.8906 0
L66.8906 64.0156
L48.0938 14.0156
L38.1875 14.0156
L19.3906 64.0156
L19.3906 0
L9.8125 0
z
" id="BitstreamVeraSans-Roman-4d"/>
      <path d="
M45.4062 27.9844
Q45.4062 37.75 41.375 43.1094
Q37.3594 48.4844 30.0781 48.4844
Q22.8594 48.4844 18.8281 43.1094
Q14.7969 37.75 14.7969 27.9844
Q14.7969 18.2656 18.8281 12.8906
Q22.8594 7.51562 30.0781 7.51562
Q37.3594 7.51562 41.375 12.8906
Q45.4062 18.2656 45.4062 27.9844
M54.3906 6.78125
Q54.3906 -7.17188 48.1875 -13.9844
Q42 -20.7969 29.2031 -20.7969
Q24.4688 -20.7969 20.2656 -20.0938
Q16.0625 -19.3906 12.1094 -17.9219
L12.1094 -9.1875
Q16.0625 -11.3281 19.9219 -12.3438
Q23.7812 -13.375 27.7812 -13.375
Q36.625 -13.375 41.0156 -8.76562
Q45.4062 -4.15625 45.4062 5.17188
L45.4062 9.625
Q42.625 4.78125 38.2812 2.39062
Q33.9375 0 27.875 0
Q17.8281 0 11.6719 7.65625
Q5.51562 15.3281 5.51562 27.9844
Q5.51562 40.6719 11.6719 48.3281
Q17.8281 56 27.875 56
Q33.9375 56 38.2812 53.6094
Q42.625 51.2188 45.4062 46.3906
L45.4062 54.6875
L54.3906 54.6875
z
" id="BitstreamVeraSans-Roman-67"/>
      <path d="
M9.42188 54.6875
L18.4062 54.6875
L18.4062 0
L9.42188 0
z

M9.42188 75.9844
L18.4062 75.9844
L18.4062 64.5938
L9.42188 64.5938
z
" id="BitstreamVeraSans-Roman-69"/>
      <path d="
M44.2812 53.0781
L44.2812 44.5781
Q40.4844 46.5312 36.375 47.5
Q32.2812 48.4844 27.875 48.4844
Q21.1875 48.4844 17.8438 46.4375
Q14.5 44.3906 14.5 40.2812
Q14.5 37.1562 16.8906 35.375
Q19.2812 33.5938 26.5156 31.9844
L29.5938 31.2969
Q39.1562 29.25 43.1875 25.5156
Q47.2188 21.7812 47.2188 15.0938
Q47.2188 7.46875 41.1875 3.01562
Q35.1562 -1.42188 24.6094 -1.42188
Q20.2188 -1.42188 15.4531 -0.5625
Q10.6875 0.296875 5.42188 2
L5.42188 11.2812
Q10.4062 8.6875 15.2344 7.39062
Q20.0625 6.10938 24.8125 6.10938
Q31.1562 6.10938 34.5625 8.28125
Q37.9844 10.4531 37.9844 14.4062
Q37.9844 18.0625 35.5156 20.0156
Q33.0625 21.9688 24.7031 23.7812
L21.5781 24.5156
Q13.2344 26.2656 9.51562 29.9062
Q5.8125 33.5469 5.8125 39.8906
Q5.8125 47.6094 11.2812 51.7969
Q16.75 56 26.8125 56
Q31.7812 56 36.1719 55.2656
Q40.5781 54.5469 44.2812 53.0781" id="BitstreamVeraSans-Roman-73"/>
      <path d="
M18.3125 70.2188
L18.3125 54.6875
L36.8125 54.6875
L36.8125 47.7031
L18.3125 47.7031
L18.3125 18.0156
Q18.3125 11.3281 20.1406 9.42188
Q21.9688 7.51562 27.5938 7.51562
L36.8125 7.51562
L36.8125 0
L27.5938 0
Q17.1875 0 13.2344 3.875
Q9.28125 7.76562 9.28125 18.0156
L9.28125 47.7031
L2.6875 47.7031
L2.6875 54.6875
L9.28125 54.6875
L9.28125 70.2188
z
" id="BitstreamVeraSans-Roman-74"/>
      <path d="
M39.4062 66.2188
Q28.6562 66.2188 22.3281 58.2031
Q16.0156 50.2031 16.0156 36.375
Q16.0156 22.6094 22.3281 14.5938
Q28.6562 6.59375 39.4062 6.59375
Q50.1406 6.59375 56.4219 14.5938
Q62.7031 22.6094 62.7031 36.375
Q62.7031 50.2031 56.4219 58.2031
Q50.1406 66.2188 39.4062 66.2188
M39.4062 74.2188
Q54.7344 74.2188 63.9062 63.9375
Q73.0938 53.6562 73.0938 36.375
Q73.0938 19.1406 63.9062 8.85938
Q54.7344 -1.42188 39.4062 -1.42188
Q24.0312 -1.42188 14.8125 8.82812
Q5.60938 19.0938 5.60938 36.375
Q5.60938 53.6562 14.8125 63.9375
Q24.0312 74.2188 39.4062 74.2188" id="BitstreamVeraSans-Roman-4f"/>
      <path d="
M34.2812 27.4844
Q23.3906 27.4844 19.1875 25
Q14.9844 22.5156 14.9844 16.5
Q14.9844 11.7188 18.1406 8.90625
Q21.2969 6.10938 26.7031 6.10938
Q34.1875 6.10938 38.7031 11.4062
Q43.2188 16.7031 43.2188 25.4844
L43.2188 27.4844
z

M52.2031 31.2031
L52.2031 0
L43.2188 0
L43.2188 8.29688
Q40.1406 3.32812 35.5469 0.953125
Q30.9531 -1.42188 24.3125 -1.42188
Q15.9219 -1.42188 10.9531 3.29688
Q6 8.01562 6 15.9219
Q6 25.1406 12.1719 29.8281
Q18.3594 34.5156 30.6094 34.5156
L43.2188 34.5156
L43.2188 35.4062
Q43.2188 41.6094 39.1406 45
Q35.0625 48.3906 27.6875 48.3906
Q23 48.3906 18.5469 47.2656
Q14.1094 46.1406 10.0156 43.8906
L10.0156 52.2031
Q14.9375 54.1094 19.5781 55.0469
Q24.2188 56 28.6094 56
Q40.4844 56 46.3438 49.8438
Q52.2031 43.7031 52.2031 31.2031" id="BitstreamVeraSans-Roman-61"/>
      <path d="
M53.5156 70.5156
L53.5156 60.8906
Q47.9062 63.5781 42.9219 64.8906
Q37.9375 66.2188 33.2969 66.2188
Q25.25 66.2188 20.875 63.0938
Q16.5 59.9688 16.5 54.2031
Q16.5 49.3594 19.4062 46.8906
Q22.3125 44.4375 30.4219 42.9219
L36.375 41.7031
Q47.4062 39.5938 52.6562 34.2969
Q57.9062 29 57.9062 20.125
Q57.9062 9.51562 50.7969 4.04688
Q43.7031 -1.42188 29.9844 -1.42188
Q24.8125 -1.42188 18.9688 -0.25
Q13.1406 0.921875 6.89062 3.21875
L6.89062 13.375
Q12.8906 10.0156 18.6562 8.29688
Q24.4219 6.59375 29.9844 6.59375
Q38.4219 6.59375 43.0156 9.90625
Q47.6094 13.2344 47.6094 19.3906
Q47.6094 24.75 44.3125 27.7812
Q41.0156 30.8125 33.5 32.3281
L27.4844 33.5
Q16.4531 35.6875 11.5156 40.375
Q6.59375 45.0625 6.59375 53.4219
Q6.59375 63.0938 13.4062 68.6562
Q20.2188 74.2188 32.1719 74.2188
Q37.3125 74.2188 42.625 73.2812
Q47.9531 72.3594 53.5156 70.5156" id="BitstreamVeraSans-Roman-53"/>
      <path d="
M54.8906 54.6875
L35.1094 28.0781
L55.9062 0
L45.3125 0
L29.3906 21.4844
L13.4844 0
L2.875 0
L24.125 28.6094
L4.6875 54.6875
L15.2812 54.6875
L29.7812 35.2031
L44.2812 54.6875
z
" id="BitstreamVeraSans-Roman-78"/>
     </defs>
     <g transform="translate(39.714375 352.42125)rotate(-90.0)scale(0.12 -0.12)">
      <use xlink:href="#BitstreamVeraSans-Roman-46"/>
      <use x="57.51953125" xlink:href="#BitstreamVeraSans-Roman-6c"/>
      <use x="85.302734375" xlink:href="#BitstreamVeraSans-Roman-75"/>
      <use x="148.681640625" xlink:href="#BitstreamVeraSans-Roman-6f"/>
      <use x="209.86328125" xlink:href="#BitstreamVeraSans-Roman-72"/>
      <use x="248.7265625" xlink:href="#BitstreamVeraSans-Roman-65"/>
      <use x="310.25" xlink:href="#BitstreamVeraSans-Roman-73"/>
      <use x="362.349609375" xlink:href="#BitstreamVeraSans-Roman-63"/>
      <use x="417.330078125" xlink:href="#BitstreamVeraSans-Roman-65"/>
      <use x="478.853515625" xlink:href="#BitstreamVeraSans-Roman-6e"/>
      <use x="542.232421875" xlink:href="#BitstreamVeraSans-Roman-63"/>
      <use x="597.212890625" xlink:href="#BitstreamVeraSans-Roman-65"/>
      <use x="658.736328125" xlink:href="#BitstreamVeraSans-Roman-20"/>
      <use x="690.5234375" xlink:href="#BitstreamVeraSans-Roman-6c"/>
      <use x="718.306640625" xlink:href="#BitstreamVeraSans-Roman-69"/>
      <use x="746.08984375" xlink:href="#BitstreamVeraSans-Roman-67"/>
      <use x="809.56640625" xlink:href="#BitstreamVeraSans-Roman-68"/>
      <use x="872.9453125" xlink:href="#BitstreamVeraSans-Roman-74"/>
      <use x="912.154296875" xlink:href="#BitstreamVeraSans-Roman-20"/>
      <use x="943.94140625" xlink:href="#BitstreamVeraSans-Roman-73"/>
      <use x="996.041015625" xlink:href="#BitstreamVeraSans-Roman-69"/>
      <use x="1023.82421875" xlink:href="#BitstreamVeraSans-Roman-67"/>
      <use x="1087.30078125" xlink:href="#BitstreamVeraSans-Roman-6e"/>
      <use x="1150.6796875" xlink:href="#BitstreamVeraSans-Roman-61"/>
      <use x="1211.958984375" xlink:href="#BitstreamVeraSans-Roman-6c"/>
      <use x="1239.7421875" xlink:href="#BitstreamVeraSans-Roman-20"/>
      <use x="1271.529296875" xlink:href="#BitstreamVeraSans-Roman-28"/>
      <use x="1310.54296875" xlink:href="#BitstreamVeraSans-Roman-43"/>
      <use x="1380.3671875" xlink:href="#BitstreamVeraSans-Roman-4d"/>
      <use x="1466.646484375" xlink:href="#BitstreamVeraSans-Roman-4f"/>
      <use x="1545.357421875" xlink:href="#BitstreamVeraSans-Roman-53"/>
      <use x="1608.833984375" xlink:href="#BitstreamVeraSans-Roman-20"/>
      <use x="1640.62109375" xlink:href="#BitstreamVeraSans-Roman-70"/>
      <use x="1704.09765625" xlink:href="#BitstreamVeraSans-Roman-69"/>
      <use x="1731.880859375" xlink:href="#BitstreamVeraSans-Roman-78"/>
      <use x="1787.935546875" xlink:href="#BitstreamVeraSans-Roman-65"/>
      <use x="1849.458984375" xlink:href="#BitstreamVeraSans-Roman-6c"/>
      <use x="1877.2421875" xlink:href="#BitstreamVeraSans-Roman-20"/>
      <use x="1909.029296875" xlink:href="#BitstreamVeraSans-Roman-63"/>
      <use x="1964.009765625" xlink:href="#BitstreamVeraSans-Roman-6f"/>
      <use x="2025.19140625" xlink:href="#BitstreamVeraSans-Roman-75"/>
      <use x="2088.5703125" xlink:href="#BitstreamVeraSans-Roman-6e"/>
      <use x="2151.94921875" xlink:href="#BitstreamVeraSans-Roman-74"/>
      <use x="2191.158203125" xlink:href="#BitstreamVeraSans-Roman-73"/>
      <use x="2243.2578125" xlink:href="#BitstreamVeraSans-Roman-29"/>
     </g>
    </g>
   </g>
   <g id="text_22">
    <!-- Depleted signal in main fluorescence lobe -->
    <defs>
     <path d="
M45.4062 46.3906
L45.4062 75.9844
L54.3906 75.9844
L54.3906 0
L45.4062 0
L45.4062 8.20312
Q42.5781 3.32812 38.25 0.953125
Q33.9375 -1.42188 27.875 -1.42188
Q17.9688 -1.42188 11.7344 6.48438
Q5.51562 14.4062 5.51562 27.2969
Q5.51562 40.1875 11.7344 48.0938
Q17.9688 56 27.875 56
Q33.9375 56 38.25 53.625
Q42.5781 51.2656 45.4062 46.3906
M14.7969 27.2969
Q14.7969 17.3906 18.875 11.75
Q22.9531 6.10938 30.0781 6.10938
Q37.2031 6.10938 41.2969 11.75
Q45.4062 17.3906 45.4062 27.2969
Q45.4062 37.2031 41.2969 42.8438
Q37.2031 48.4844 30.0781 48.4844
Q22.9531 48.4844 18.875 42.8438
Q14.7969 37.2031 14.7969 27.2969" id="BitstreamVeraSans-Roman-64"/>
     <path d="
M19.6719 64.7969
L19.6719 8.10938
L31.5938 8.10938
Q46.6875 8.10938 53.6875 14.9375
Q60.6875 21.7812 60.6875 36.5312
Q60.6875 51.1719 53.6875 57.9844
Q46.6875 64.7969 31.5938 64.7969
z

M9.8125 72.9062
L30.0781 72.9062
Q51.2656 72.9062 61.1719 64.0938
Q71.0938 55.2812 71.0938 36.5312
Q71.0938 17.6719 61.125 8.82812
Q51.1719 0 30.0781 0
L9.8125 0
z
" id="BitstreamVeraSans-Roman-44"/>
     <path d="
M37.1094 75.9844
L37.1094 68.5
L28.5156 68.5
Q23.6875 68.5 21.7969 66.5469
Q19.9219 64.5938 19.9219 59.5156
L19.9219 54.6875
L34.7188 54.6875
L34.7188 47.7031
L19.9219 47.7031
L19.9219 0
L10.8906 0
L10.8906 47.7031
L2.29688 47.7031
L2.29688 54.6875
L10.8906 54.6875
L10.8906 58.5
Q10.8906 67.625 15.1406 71.7969
Q19.3906 75.9844 28.6094 75.9844
z
" id="BitstreamVeraSans-Roman-66"/>
     <path d="
M48.6875 27.2969
Q48.6875 37.2031 44.6094 42.8438
Q40.5312 48.4844 33.4062 48.4844
Q26.2656 48.4844 22.1875 42.8438
Q18.1094 37.2031 18.1094 27.2969
Q18.1094 17.3906 22.1875 11.75
Q26.2656 6.10938 33.4062 6.10938
Q40.5312 6.10938 44.6094 11.75
Q48.6875 17.3906 48.6875 27.2969
M18.1094 46.3906
Q20.9531 51.2656 25.2656 53.625
Q29.5938 56 35.5938 56
Q45.5625 56 51.7812 48.0938
Q58.0156 40.1875 58.0156 27.2969
Q58.0156 14.4062 51.7812 6.48438
Q45.5625 -1.42188 35.5938 -1.42188
Q29.5938 -1.42188 25.2656 0.953125
Q20.9531 3.32812 18.1094 8.20312
L18.1094 0
L9.07812 0
L9.07812 75.9844
L18.1094 75.9844
z
" id="BitstreamVeraSans-Roman-62"/>
    </defs>
    <g transform="translate(144.26325 38.2)scale(0.144 -0.144)">
     <use xlink:href="#BitstreamVeraSans-Roman-44"/>
     <use x="77.001953125" xlink:href="#BitstreamVeraSans-Roman-65"/>
     <use x="138.525390625" xlink:href="#BitstreamVeraSans-Roman-70"/>
     <use x="202.001953125" xlink:href="#BitstreamVeraSans-Roman-6c"/>
     <use x="229.78515625" xlink:href="#BitstreamVeraSans-Roman-65"/>
     <use x="291.30859375" xlink:href="#BitstreamVeraSans-Roman-74"/>
     <use x="330.517578125" xlink:href="#BitstreamVeraSans-Roman-65"/>
     <use x="392.041015625" xlink:href="#BitstreamVeraSans-Roman-64"/>
     <use x="455.517578125" xlink:href="#BitstreamVeraSans-Roman-20"/>
     <use x="487.3046875" xlink:href="#BitstreamVeraSans-Roman-73"/>
     <use x="539.404296875" xlink:href="#BitstreamVeraSans-Roman-69"/>
     <use x="567.1875" xlink:href="#BitstreamVeraSans-Roman-67"/>
     <use x="630.6640625" xlink:href="#BitstreamVeraSans-Roman-6e"/>
     <use x="694.04296875" xlink:href="#BitstreamVeraSans-Roman-61"/>
     <use x="755.322265625" xlink:href="#BitstreamVeraSans-Roman-6c"/>
     <use x="783.10546875" xlink:href="#BitstreamVeraSans-Roman-20"/>
     <use x="814.892578125" xlink:href="#BitstreamVeraSans-Roman-69"/>
     <use x="842.67578125" xlink:href="#BitstreamVeraSans-Roman-6e"/>
     <use x="906.0546875" xlink:href="#BitstreamVeraSans-Roman-20"/>
     <use x="937.841796875" xlink:href="#BitstreamVeraSans-Roman-6d"/>
     <use x="1035.25390625" xlink:href="#BitstreamVeraSans-Roman-61"/>
     <use x="1096.533203125" xlink:href="#BitstreamVeraSans-Roman-69"/>
     <use x="1124.31640625" xlink:href="#BitstreamVeraSans-Roman-6e"/>
     <use x="1187.6953125" xlink:href="#BitstreamVeraSans-Roman-20"/>
     <use x="1219.482421875" xlink:href="#BitstreamVeraSans-Roman-66"/>
     <use x="1254.6875" xlink:href="#BitstreamVeraSans-Roman-6c"/>
     <use x="1282.470703125" xlink:href="#BitstreamVeraSans-Roman-75"/>
     <use x="1345.849609375" xlink:href="#BitstreamVeraSans-Roman-6f"/>
     <use x="1407.03125" xlink:href="#BitstreamVeraSans-Roman-72"/>
     <use x="1445.89453125" xlink:href="#BitstreamVeraSans-Roman-65"/>
     <use x="1507.41796875" xlink:href="#BitstreamVeraSans-Roman-73"/>
     <use x="1559.517578125" xlink:href="#BitstreamVeraSans-Roman-63"/>
     <use x="1614.498046875" xlink:href="#BitstreamVeraSans-Roman-65"/>
     <use x="1676.021484375" xlink:href="#BitstreamVeraSans-Roman-6e"/>
     <use x="1739.400390625" xlink:href="#BitstreamVeraSans-Roman-63"/>
     <use x="1794.380859375" xlink:href="#BitstreamVeraSans-Roman-65"/>
     <use x="1855.904296875" xlink:href="#BitstreamVeraSans-Roman-20"/>
     <use x="1887.69140625" xlink:href="#BitstreamVeraSans-Roman-6c"/>
     <use x="1915.474609375" xlink:href="#BitstreamVeraSans-Roman-6f"/>
     <use x="1976.65625" xlink:href="#BitstreamVeraSans-Roman-62"/>
     <use x="2040.1328125" xlink:href="#BitstreamVeraSans-Roman-65"/>
    </g>
   </g>
   <g id="legend_1">
    <g id="patch_7">
     <path d="
M339.741 381.6
L511.2 381.6
L511.2 229.325
L339.741 229.325
z
" style="fill:#ffffff;stroke:#000000;stroke-linejoin:miter;"/>
    </g>
    <g id="line2d_65">
     <path d="
M349.821 240.986
L369.981 240.986" style="fill:none;stroke:#0000ff;stroke-linecap:square;"/>
    </g>
    <g id="line2d_66">
     <g>
      <use style="fill:#0000ff;stroke:#0000ff;stroke-width:0.5;" x="349.821" xlink:href="#m7dd2bde27e" y="240.98625"/>
      <use style="fill:#0000ff;stroke:#0000ff;stroke-width:0.5;" x="369.981" xlink:href="#m7dd2bde27e" y="240.98625"/>
     </g>
    </g>
    <g id="text_23">
     <!-- Red power =0 -->
     <defs>
      <path d="
M10.5938 45.4062
L73.1875 45.4062
L73.1875 37.2031
L10.5938 37.2031
z

M10.5938 25.4844
L73.1875 25.4844
L73.1875 17.1875
L10.5938 17.1875
z
" id="BitstreamVeraSans-Roman-3d"/>
      <path d="
M44.3906 34.1875
Q47.5625 33.1094 50.5625 29.5938
Q53.5625 26.0781 56.5938 19.9219
L66.6094 0
L56 0
L46.6875 18.7031
Q43.0625 26.0312 39.6719 28.4219
Q36.2812 30.8125 30.4219 30.8125
L19.6719 30.8125
L19.6719 0
L9.8125 0
L9.8125 72.9062
L32.0781 72.9062
Q44.5781 72.9062 50.7344 67.6719
Q56.8906 62.4531 56.8906 51.9062
Q56.8906 45.0156 53.6875 40.4688
Q50.4844 35.9375 44.3906 34.1875
M19.6719 64.7969
L19.6719 38.9219
L32.0781 38.9219
Q39.2031 38.9219 42.8438 42.2188
Q46.4844 45.5156 46.4844 51.9062
Q46.4844 58.2969 42.8438 61.5469
Q39.2031 64.7969 32.0781 64.7969
z
" id="BitstreamVeraSans-Roman-52"/>
     </defs>
     <g transform="translate(385.821 246.02625)scale(0.144 -0.144)">
      <use xlink:href="#BitstreamVeraSans-Roman-52"/>
      <use x="64.982421875" xlink:href="#BitstreamVeraSans-Roman-65"/>
      <use x="126.505859375" xlink:href="#BitstreamVeraSans-Roman-64"/>
      <use x="189.982421875" xlink:href="#BitstreamVeraSans-Roman-20"/>
      <use x="221.76953125" xlink:href="#BitstreamVeraSans-Roman-70"/>
      <use x="285.24609375" xlink:href="#BitstreamVeraSans-Roman-6f"/>
      <use x="346.427734375" xlink:href="#BitstreamVeraSans-Roman-77"/>
      <use x="428.21484375" xlink:href="#BitstreamVeraSans-Roman-65"/>
      <use x="489.73828125" xlink:href="#BitstreamVeraSans-Roman-72"/>
      <use x="530.8515625" xlink:href="#BitstreamVeraSans-Roman-20"/>
      <use x="562.638671875" xlink:href="#BitstreamVeraSans-Roman-3d"/>
      <use x="646.427734375" xlink:href="#BitstreamVeraSans-Roman-30"/>
     </g>
    </g>
    <g id="line2d_67">
     <path d="
M349.821 262.123
L369.981 262.123" style="fill:none;stroke:#008000;stroke-linecap:square;"/>
    </g>
    <g id="line2d_68">
     <g>
      <use style="fill:#008000;stroke:#008000;stroke-width:0.5;" x="349.821" xlink:href="#m6647e498ca" y="262.12275"/>
      <use style="fill:#008000;stroke:#008000;stroke-width:0.5;" x="369.981" xlink:href="#m6647e498ca" y="262.12275"/>
     </g>
    </g>
    <g id="text_24">
     <!-- Red power =51 -->
     <g transform="translate(385.821 267.16275)scale(0.144 -0.144)">
      <use xlink:href="#BitstreamVeraSans-Roman-52"/>
      <use x="64.982421875" xlink:href="#BitstreamVeraSans-Roman-65"/>
      <use x="126.505859375" xlink:href="#BitstreamVeraSans-Roman-64"/>
      <use x="189.982421875" xlink:href="#BitstreamVeraSans-Roman-20"/>
      <use x="221.76953125" xlink:href="#BitstreamVeraSans-Roman-70"/>
      <use x="285.24609375" xlink:href="#BitstreamVeraSans-Roman-6f"/>
      <use x="346.427734375" xlink:href="#BitstreamVeraSans-Roman-77"/>
      <use x="428.21484375" xlink:href="#BitstreamVeraSans-Roman-65"/>
      <use x="489.73828125" xlink:href="#BitstreamVeraSans-Roman-72"/>
      <use x="530.8515625" xlink:href="#BitstreamVeraSans-Roman-20"/>
      <use x="562.638671875" xlink:href="#BitstreamVeraSans-Roman-3d"/>
      <use x="646.427734375" xlink:href="#BitstreamVeraSans-Roman-35"/>
      <use x="710.05078125" xlink:href="#BitstreamVeraSans-Roman-31"/>
     </g>
    </g>
    <g id="line2d_69">
     <path d="
M349.821 283.259
L369.981 283.259" style="fill:none;stroke:#ff0000;stroke-linecap:square;"/>
    </g>
    <g id="line2d_70">
     <g>
      <use style="fill:#ff0000;stroke:#ff0000;stroke-width:0.5;" x="349.821" xlink:href="#m590d835582" y="283.25925"/>
      <use style="fill:#ff0000;stroke:#ff0000;stroke-width:0.5;" x="369.981" xlink:href="#m590d835582" y="283.25925"/>
     </g>
    </g>
    <g id="text_25">
     <!-- Red power =101 -->
     <g transform="translate(385.821 288.29925)scale(0.144 -0.144)">
      <use xlink:href="#BitstreamVeraSans-Roman-52"/>
      <use x="64.982421875" xlink:href="#BitstreamVeraSans-Roman-65"/>
      <use x="126.505859375" xlink:href="#BitstreamVeraSans-Roman-64"/>
      <use x="189.982421875" xlink:href="#BitstreamVeraSans-Roman-20"/>
      <use x="221.76953125" xlink:href="#BitstreamVeraSans-Roman-70"/>
      <use x="285.24609375" xlink:href="#BitstreamVeraSans-Roman-6f"/>
      <use x="346.427734375" xlink:href="#BitstreamVeraSans-Roman-77"/>
      <use x="428.21484375" xlink:href="#BitstreamVeraSans-Roman-65"/>
      <use x="489.73828125" xlink:href="#BitstreamVeraSans-Roman-72"/>
      <use x="530.8515625" xlink:href="#BitstreamVeraSans-Roman-20"/>
      <use x="562.638671875" xlink:href="#BitstreamVeraSans-Roman-3d"/>
      <use x="646.427734375" xlink:href="#BitstreamVeraSans-Roman-31"/>
      <use x="710.05078125" xlink:href="#BitstreamVeraSans-Roman-30"/>
      <use x="773.673828125" xlink:href="#BitstreamVeraSans-Roman-31"/>
     </g>
    </g>
    <g id="line2d_71">
     <path d="
M349.821 304.396
L369.981 304.396" style="fill:none;stroke:#00bfbf;stroke-linecap:square;"/>
    </g>
    <g id="line2d_72">
     <g>
      <use style="fill:#00bfbf;stroke:#00bfbf;stroke-width:0.5;" x="349.821" xlink:href="#m79a42a2c34" y="304.39575"/>
      <use style="fill:#00bfbf;stroke:#00bfbf;stroke-width:0.5;" x="369.981" xlink:href="#m79a42a2c34" y="304.39575"/>
     </g>
    </g>
    <g id="text_26">
     <!-- Red power =147 -->
     <g transform="translate(385.821 309.43575)scale(0.144 -0.144)">
      <use xlink:href="#BitstreamVeraSans-Roman-52"/>
      <use x="64.982421875" xlink:href="#BitstreamVeraSans-Roman-65"/>
      <use x="126.505859375" xlink:href="#BitstreamVeraSans-Roman-64"/>
      <use x="189.982421875" xlink:href="#BitstreamVeraSans-Roman-20"/>
      <use x="221.76953125" xlink:href="#BitstreamVeraSans-Roman-70"/>
      <use x="285.24609375" xlink:href="#BitstreamVeraSans-Roman-6f"/>
      <use x="346.427734375" xlink:href="#BitstreamVeraSans-Roman-77"/>
      <use x="428.21484375" xlink:href="#BitstreamVeraSans-Roman-65"/>
      <use x="489.73828125" xlink:href="#BitstreamVeraSans-Roman-72"/>
      <use x="530.8515625" xlink:href="#BitstreamVeraSans-Roman-20"/>
      <use x="562.638671875" xlink:href="#BitstreamVeraSans-Roman-3d"/>
      <use x="646.427734375" xlink:href="#BitstreamVeraSans-Roman-31"/>
      <use x="710.05078125" xlink:href="#BitstreamVeraSans-Roman-34"/>
      <use x="773.673828125" xlink:href="#BitstreamVeraSans-Roman-37"/>
     </g>
    </g>
    <g id="line2d_73">
     <path d="
M349.821 325.532
L369.981 325.532" style="fill:none;stroke:#bf00bf;stroke-linecap:square;"/>
    </g>
    <g id="line2d_74">
     <g>
      <use style="fill:#bf00bf;stroke:#bf00bf;stroke-width:0.5;" x="349.821" xlink:href="#m494f39f36c" y="325.53225"/>
      <use style="fill:#bf00bf;stroke:#bf00bf;stroke-width:0.5;" x="369.981" xlink:href="#m494f39f36c" y="325.53225"/>
     </g>
    </g>
    <g id="text_27">
     <!-- Red power =192 -->
     <g transform="translate(385.821 330.57225)scale(0.144 -0.144)">
      <use xlink:href="#BitstreamVeraSans-Roman-52"/>
      <use x="64.982421875" xlink:href="#BitstreamVeraSans-Roman-65"/>
      <use x="126.505859375" xlink:href="#BitstreamVeraSans-Roman-64"/>
      <use x="189.982421875" xlink:href="#BitstreamVeraSans-Roman-20"/>
      <use x="221.76953125" xlink:href="#BitstreamVeraSans-Roman-70"/>
      <use x="285.24609375" xlink:href="#BitstreamVeraSans-Roman-6f"/>
      <use x="346.427734375" xlink:href="#BitstreamVeraSans-Roman-77"/>
      <use x="428.21484375" xlink:href="#BitstreamVeraSans-Roman-65"/>
      <use x="489.73828125" xlink:href="#BitstreamVeraSans-Roman-72"/>
      <use x="530.8515625" xlink:href="#BitstreamVeraSans-Roman-20"/>
      <use x="562.638671875" xlink:href="#BitstreamVeraSans-Roman-3d"/>
      <use x="646.427734375" xlink:href="#BitstreamVeraSans-Roman-31"/>
      <use x="710.05078125" xlink:href="#BitstreamVeraSans-Roman-39"/>
      <use x="773.673828125" xlink:href="#BitstreamVeraSans-Roman-32"/>
     </g>
    </g>
    <g id="line2d_75">
     <path d="
M349.821 346.669
L369.981 346.669" style="fill:none;stroke:#bfbf00;stroke-linecap:square;"/>
    </g>
    <g id="line2d_76">
     <g>
      <use style="fill:#bfbf00;stroke:#bfbf00;stroke-width:0.5;" x="349.821" xlink:href="#mb08df4b085" y="346.66875"/>
      <use style="fill:#bfbf00;stroke:#bfbf00;stroke-width:0.5;" x="369.981" xlink:href="#mb08df4b085" y="346.66875"/>
     </g>
    </g>
    <g id="text_28">
     <!-- Red power =242 -->
     <g transform="translate(385.821 351.70875)scale(0.144 -0.144)">
      <use xlink:href="#BitstreamVeraSans-Roman-52"/>
      <use x="64.982421875" xlink:href="#BitstreamVeraSans-Roman-65"/>
      <use x="126.505859375" xlink:href="#BitstreamVeraSans-Roman-64"/>
      <use x="189.982421875" xlink:href="#BitstreamVeraSans-Roman-20"/>
      <use x="221.76953125" xlink:href="#BitstreamVeraSans-Roman-70"/>
      <use x="285.24609375" xlink:href="#BitstreamVeraSans-Roman-6f"/>
      <use x="346.427734375" xlink:href="#BitstreamVeraSans-Roman-77"/>
      <use x="428.21484375" xlink:href="#BitstreamVeraSans-Roman-65"/>
      <use x="489.73828125" xlink:href="#BitstreamVeraSans-Roman-72"/>
      <use x="530.8515625" xlink:href="#BitstreamVeraSans-Roman-20"/>
      <use x="562.638671875" xlink:href="#BitstreamVeraSans-Roman-3d"/>
      <use x="646.427734375" xlink:href="#BitstreamVeraSans-Roman-32"/>
      <use x="710.05078125" xlink:href="#BitstreamVeraSans-Roman-34"/>
      <use x="773.673828125" xlink:href="#BitstreamVeraSans-Roman-32"/>
     </g>
    </g>
    <g id="line2d_77">
     <path d="
M349.821 367.805
L369.981 367.805" style="fill:none;stroke:#000000;stroke-linecap:square;"/>
    </g>
    <g id="line2d_78">
     <g>
      <use style="stroke:#000000;stroke-width:0.5;" x="349.821" xlink:href="#m8185dd89ac" y="367.80525"/>
      <use style="stroke:#000000;stroke-width:0.5;" x="369.981" xlink:href="#m8185dd89ac" y="367.80525"/>
     </g>
    </g>
    <g id="text_29">
     <!-- Red power =300 -->
     <g transform="translate(385.821 372.84525)scale(0.144 -0.144)">
      <use xlink:href="#BitstreamVeraSans-Roman-52"/>
      <use x="64.982421875" xlink:href="#BitstreamVeraSans-Roman-65"/>
      <use x="126.505859375" xlink:href="#BitstreamVeraSans-Roman-64"/>
      <use x="189.982421875" xlink:href="#BitstreamVeraSans-Roman-20"/>
      <use x="221.76953125" xlink:href="#BitstreamVeraSans-Roman-70"/>
      <use x="285.24609375" xlink:href="#BitstreamVeraSans-Roman-6f"/>
      <use x="346.427734375" xlink:href="#BitstreamVeraSans-Roman-77"/>
      <use x="428.21484375" xlink:href="#BitstreamVeraSans-Roman-65"/>
      <use x="489.73828125" xlink:href="#BitstreamVeraSans-Roman-72"/>
      <use x="530.8515625" xlink:href="#BitstreamVeraSans-Roman-20"/>
      <use x="562.638671875" xlink:href="#BitstreamVeraSans-Roman-3d"/>
      <use x="646.427734375" xlink:href="#BitstreamVeraSans-Roman-33"/>
      <use x="710.05078125" xlink:href="#BitstreamVeraSans-Roman-30"/>
      <use x="773.673828125" xlink:href="#BitstreamVeraSans-Roman-30"/>
     </g>
    </g>
   </g>
  </g>
 </g>
 <defs>
  <clipPath id="p7ff5b81e1d">
   <rect height="345.6" width="446.4" x="72.0" y="43.2"/>
  </clipPath>
 </defs>
</svg>
